M48
;Layer_Color=9474304
;FILE_FORMAT=4:4
METRIC,LZ
;TYPE=NON_PLATED
T3F00S00C0.3000
%
T03
X-00082417Y-00053726
X-00084462Y-00050221
X-00086351Y-0004663
X-00088082Y-0004296
X-00089894Y-0003956
X-00078614Y-00040114
X-00080345Y-00036445
X-00076725Y-00043705
X-00074681Y-0004721
X-00057576Y00012218
X-00056614Y00016223
X-00055376Y0002015
X-00053867Y00023982
X-00052094Y00027699
X-00043463Y00022626
X-0004527Y00018751
X-00046732Y00014735
X-00047838Y00010605
X-00036357Y00080524
X-00032602Y00082061
X-00028783Y00083432
X-00024908Y00084635
X-00026664Y00094525
X-00030284Y00093203
X-00034159Y00092
X-00037978Y00090629
X-00041733Y00089093
X00047848Y-00010718
X00046741Y-00014847
X00045279Y-00018864
X00043473Y-00022738
X00053876Y-00024094
X00055385Y-00020263
X00056624Y-00016335
X00057585Y-00012331
X00052103Y-00027811
X00083818Y-00027773
X00085055Y-00023909
X00082414Y-0003158
X00080845Y-00035322
X00090864Y-00036711
X00089549Y-00040333
X00092433Y-0003297
X00093837Y-00029163
X00095074Y-00025298
M30
