M48
;Layer_Color=9474304
;FILE_FORMAT=4:4
METRIC,LZ
;TYPE=PLATED
T1F00S00C0.3000
T2F00S00C0.9000
%
T01
X00076814Y-00025702
X00124Y00036
X00131
T02
X-00029Y-00105
X-000127Y-0011
X000127
X00054Y-00093
X0006902Y-0008698
X0008698Y-0006902
X00040289Y-00066747
X00052989Y-0004475
X00024247Y-00029485
X00000379Y-00038173
X-00005367Y-0001151
X00005367Y0001151
X-00000379Y00038173
X-00024247Y00029485
X-00038172Y-0000038
X-00068111Y-00000325
X-00074685Y-0002486
X-00055Y-00042
X-00034048Y-00059676
X-00015471Y-00076999
X00006Y-00069
X-00029485Y-00024248
X-00102Y-00035
X-0011Y-000127
Y000127
X-0008698Y0006902
X-0006902Y0008698
X-00054659Y00096609
X-00040289Y00066747
X-00052989Y0004475
X-00004883Y00069829
X00012059Y00068338
X00037459
X00049Y00096
X0006902Y0008698
X0008698Y0006902
X00104007Y00035812
X0011Y000127
Y-000127
X00068111Y00000326
X00038172Y0000038
X00029485Y00024248
X00056Y0004
X00074685Y0002486
X000127Y0011
X-000127
X-0008698Y-0006902
X-0006902Y-0008698
M30
