G04*
G04 #@! TF.GenerationSoftware,Altium Limited,Altium Designer,20.2.4 (192)*
G04*
G04 Layer_Color=16711935*
%FSLAX44Y44*%
%MOMM*%
G71*
G04*
G04 #@! TF.SameCoordinates,0F43FF0A-D758-409E-903F-A1448CC310CE*
G04*
G04*
G04 #@! TF.FilePolarity,Negative*
G04*
G01*
G75*
%ADD13C,0.2032*%
%ADD17C,1.5200*%
%ADD18C,0.1200*%
%ADD40R,1.0200X0.6200*%
%ADD41R,0.6200X1.0200*%
G04:AMPARAMS|DCode=42|XSize=0.62mm|YSize=1.02mm|CornerRadius=0mm|HoleSize=0mm|Usage=FLASHONLY|Rotation=160.000|XOffset=0mm|YOffset=0mm|HoleType=Round|Shape=Rectangle|*
%AMROTATEDRECTD42*
4,1,4,0.4657,0.3732,0.1169,-0.5853,-0.4657,-0.3732,-0.1169,0.5853,0.4657,0.3732,0.0*
%
%ADD42ROTATEDRECTD42*%

G04:AMPARAMS|DCode=43|XSize=0.62mm|YSize=1.02mm|CornerRadius=0mm|HoleSize=0mm|Usage=FLASHONLY|Rotation=110.000|XOffset=0mm|YOffset=0mm|HoleType=Round|Shape=Rectangle|*
%AMROTATEDRECTD43*
4,1,4,0.5853,-0.1169,-0.3732,-0.4657,-0.5853,0.1169,0.3732,0.4657,0.5853,-0.1169,0.0*
%
%ADD43ROTATEDRECTD43*%

G04:AMPARAMS|DCode=44|XSize=0.62mm|YSize=1.02mm|CornerRadius=0mm|HoleSize=0mm|Usage=FLASHONLY|Rotation=150.000|XOffset=0mm|YOffset=0mm|HoleType=Round|Shape=Rectangle|*
%AMROTATEDRECTD44*
4,1,4,0.5235,0.2867,0.0135,-0.5967,-0.5235,-0.2867,-0.0135,0.5967,0.5235,0.2867,0.0*
%
%ADD44ROTATEDRECTD44*%

G04:AMPARAMS|DCode=45|XSize=0.62mm|YSize=1.02mm|CornerRadius=0mm|HoleSize=0mm|Usage=FLASHONLY|Rotation=210.000|XOffset=0mm|YOffset=0mm|HoleType=Round|Shape=Rectangle|*
%AMROTATEDRECTD45*
4,1,4,0.0135,0.5967,0.5235,-0.2867,-0.0135,-0.5967,-0.5235,0.2867,0.0135,0.5967,0.0*
%
%ADD45ROTATEDRECTD45*%

G04:AMPARAMS|DCode=46|XSize=0.62mm|YSize=1.02mm|CornerRadius=0mm|HoleSize=0mm|Usage=FLASHONLY|Rotation=243.500|XOffset=0mm|YOffset=0mm|HoleType=Round|Shape=Rectangle|*
%AMROTATEDRECTD46*
4,1,4,-0.3181,0.5050,0.5947,0.0499,0.3181,-0.5050,-0.5947,-0.0499,-0.3181,0.5050,0.0*
%
%ADD46ROTATEDRECTD46*%

G04:AMPARAMS|DCode=47|XSize=0.62mm|YSize=1.02mm|CornerRadius=0mm|HoleSize=0mm|Usage=FLASHONLY|Rotation=287.000|XOffset=0mm|YOffset=0mm|HoleType=Round|Shape=Rectangle|*
%AMROTATEDRECTD47*
4,1,4,-0.5784,0.1473,0.3971,0.4456,0.5784,-0.1473,-0.3971,-0.4456,-0.5784,0.1473,0.0*
%
%ADD47ROTATEDRECTD47*%

G04:AMPARAMS|DCode=48|XSize=0.62mm|YSize=1.02mm|CornerRadius=0mm|HoleSize=0mm|Usage=FLASHONLY|Rotation=45.350|XOffset=0mm|YOffset=0mm|HoleType=Round|Shape=Rectangle|*
%AMROTATEDRECTD48*
4,1,4,0.1450,-0.5790,-0.5807,0.1379,-0.1450,0.5790,0.5807,-0.1379,0.1450,-0.5790,0.0*
%
%ADD48ROTATEDRECTD48*%

G04:AMPARAMS|DCode=49|XSize=0.62mm|YSize=1.02mm|CornerRadius=0mm|HoleSize=0mm|Usage=FLASHONLY|Rotation=165.000|XOffset=0mm|YOffset=0mm|HoleType=Round|Shape=Rectangle|*
%AMROTATEDRECTD49*
4,1,4,0.4314,0.4124,0.1674,-0.5729,-0.4314,-0.4124,-0.1674,0.5729,0.4314,0.4124,0.0*
%
%ADD49ROTATEDRECTD49*%

G04:AMPARAMS|DCode=50|XSize=0.62mm|YSize=1.02mm|CornerRadius=0mm|HoleSize=0mm|Usage=FLASHONLY|Rotation=150.141|XOffset=0mm|YOffset=0mm|HoleType=Round|Shape=Rectangle|*
%AMROTATEDRECTD50*
4,1,4,0.5228,0.2880,0.0149,-0.5966,-0.5228,-0.2880,-0.0149,0.5966,0.5228,0.2880,0.0*
%
%ADD50ROTATEDRECTD50*%

G04:AMPARAMS|DCode=51|XSize=0.62mm|YSize=1.02mm|CornerRadius=0mm|HoleSize=0mm|Usage=FLASHONLY|Rotation=165.117|XOffset=0mm|YOffset=0mm|HoleType=Round|Shape=Rectangle|*
%AMROTATEDRECTD51*
4,1,4,0.4306,0.4133,0.1686,-0.5725,-0.4306,-0.4133,-0.1686,0.5725,0.4306,0.4133,0.0*
%
%ADD51ROTATEDRECTD51*%

G04:AMPARAMS|DCode=52|XSize=0.62mm|YSize=1.02mm|CornerRadius=0mm|HoleSize=0mm|Usage=FLASHONLY|Rotation=229.000|XOffset=0mm|YOffset=0mm|HoleType=Round|Shape=Rectangle|*
%AMROTATEDRECTD52*
4,1,4,-0.1815,0.5686,0.5883,-0.1006,0.1815,-0.5686,-0.5883,0.1006,-0.1815,0.5686,0.0*
%
%ADD52ROTATEDRECTD52*%

G54D13*
X-585802Y-469392D02*
Y-484627D01*
X-578184D01*
X-575645Y-482088D01*
Y-479549D01*
X-578184Y-477010D01*
X-585802D01*
X-578184D01*
X-575645Y-474470D01*
Y-471931D01*
X-578184Y-469392D01*
X-585802D01*
X-568028Y-484627D02*
X-562949D01*
X-560410Y-482088D01*
Y-477010D01*
X-562949Y-474470D01*
X-568028D01*
X-570567Y-477010D01*
Y-482088D01*
X-568028Y-484627D01*
X-552793Y-471931D02*
Y-474470D01*
X-555332D01*
X-550253D01*
X-552793D01*
Y-482088D01*
X-550253Y-484627D01*
X-540097Y-471931D02*
Y-474470D01*
X-542636D01*
X-537557D01*
X-540097D01*
Y-482088D01*
X-537557Y-484627D01*
X-527401D02*
X-522322D01*
X-519783Y-482088D01*
Y-477010D01*
X-522322Y-474470D01*
X-527401D01*
X-529940Y-477010D01*
Y-482088D01*
X-527401Y-484627D01*
X-514705D02*
Y-474470D01*
X-512166D01*
X-509627Y-477010D01*
Y-484627D01*
Y-477010D01*
X-507087Y-474470D01*
X-504548Y-477010D01*
Y-484627D01*
X-474078Y-471931D02*
X-476617Y-469392D01*
X-481696D01*
X-484235Y-471931D01*
Y-474470D01*
X-481696Y-477010D01*
X-476617D01*
X-474078Y-479549D01*
Y-482088D01*
X-476617Y-484627D01*
X-481696D01*
X-484235Y-482088D01*
X-466460Y-484627D02*
X-461382D01*
X-458843Y-482088D01*
Y-477010D01*
X-461382Y-474470D01*
X-466460D01*
X-469000Y-477010D01*
Y-482088D01*
X-466460Y-484627D01*
X-453765D02*
X-448686D01*
X-451225D01*
Y-469392D01*
X-453765D01*
X-430912D02*
Y-484627D01*
X-438530D01*
X-441069Y-482088D01*
Y-477010D01*
X-438530Y-474470D01*
X-430912D01*
X-418216Y-484627D02*
X-423294D01*
X-425834Y-482088D01*
Y-477010D01*
X-423294Y-474470D01*
X-418216D01*
X-415677Y-477010D01*
Y-479549D01*
X-425834D01*
X-410599Y-474470D02*
Y-484627D01*
Y-479549D01*
X-408059Y-477010D01*
X-405520Y-474470D01*
X-402981D01*
G54D17*
X24247Y-29485D02*
D03*
X379Y-38173D02*
D03*
X110000Y12700D02*
D03*
Y-12700D02*
D03*
X86980Y69020D02*
D03*
X69020Y86980D02*
D03*
X-12700Y110000D02*
D03*
X12700D02*
D03*
X-69020Y86980D02*
D03*
X-86980Y69020D02*
D03*
X-110000Y-12700D02*
D03*
Y12700D02*
D03*
X-86980Y-69020D02*
D03*
X-69020Y-86980D02*
D03*
X12700Y-110000D02*
D03*
X-12700D02*
D03*
X69020Y-86980D02*
D03*
X86980Y-69020D02*
D03*
X74685Y24860D02*
D03*
X68111Y326D02*
D03*
X37459Y68338D02*
D03*
X12059D02*
D03*
X-52989Y44750D02*
D03*
X-40289Y66747D02*
D03*
X-74685Y-24860D02*
D03*
X-68111Y-325D02*
D03*
X-34048Y-59676D02*
D03*
X-15471Y-76999D02*
D03*
X40289Y-66747D02*
D03*
X52989Y-44750D02*
D03*
X29485Y24248D02*
D03*
X38172Y380D02*
D03*
X-379Y38173D02*
D03*
X-24247Y29485D02*
D03*
X-38172Y-380D02*
D03*
X-29485Y-24248D02*
D03*
X5367Y11510D02*
D03*
X-5367Y-11510D02*
D03*
X-4883Y69829D02*
D03*
X6000Y-69000D02*
D03*
X-55000Y-42000D02*
D03*
X56000Y40000D02*
D03*
X54000Y-93000D02*
D03*
X-29000Y-105000D02*
D03*
X-102000Y-35000D02*
D03*
X-54659Y96609D02*
D03*
X104007Y35812D02*
D03*
X49000Y96000D02*
D03*
G54D18*
X43473Y-22738D02*
D03*
X45279Y-18864D02*
D03*
X46741Y-14847D02*
D03*
X47848Y-10718D02*
D03*
X52103Y-27811D02*
D03*
X53876Y-24094D02*
D03*
X55385Y-20263D02*
D03*
X56624Y-16335D02*
D03*
X57585Y-12331D02*
D03*
X-57576Y12218D02*
D03*
X-56614Y16223D02*
D03*
X-55376Y20150D02*
D03*
X-53867Y23982D02*
D03*
X-52094Y27699D02*
D03*
X-47838Y10605D02*
D03*
X-46732Y14735D02*
D03*
X-45270Y18751D02*
D03*
X-43463Y22626D02*
D03*
X-80345Y-36445D02*
D03*
X-78614Y-40114D02*
D03*
X-76725Y-43705D02*
D03*
X-74681Y-47210D02*
D03*
X-89894Y-39560D02*
D03*
X-88082Y-42960D02*
D03*
X-86351Y-46630D02*
D03*
X-84462Y-50221D02*
D03*
X-82417Y-53726D02*
D03*
X-41733Y89093D02*
D03*
X-37978Y90629D02*
D03*
X-34159Y92000D02*
D03*
X-30284Y93203D02*
D03*
X-26664Y94525D02*
D03*
X-24908Y84635D02*
D03*
X-28783Y83432D02*
D03*
X-32602Y82061D02*
D03*
X-36357Y80524D02*
D03*
X89549Y-40333D02*
D03*
X93837Y-29163D02*
D03*
X92433Y-32970D02*
D03*
X95074Y-25298D02*
D03*
X90864Y-36711D02*
D03*
X80845Y-35322D02*
D03*
X85055Y-23909D02*
D03*
X82414Y-31580D02*
D03*
X83818Y-27773D02*
D03*
G54D40*
X23000Y-16500D02*
D03*
Y-1500D02*
D03*
X10000Y-16500D02*
D03*
Y-1500D02*
D03*
G54D41*
X104500Y-0D02*
D03*
X119500Y0D02*
D03*
X-26500Y2000D02*
D03*
X-11500D02*
D03*
X16500Y11000D02*
D03*
X31500D02*
D03*
X-26367Y14598D02*
D03*
X-11367D02*
D03*
G54D42*
X42048Y111435D02*
D03*
X27952Y116565D02*
D03*
G54D43*
X-28331Y103405D02*
D03*
X-33461Y117500D02*
D03*
G54D44*
X-92505Y53250D02*
D03*
X-105495Y60750D02*
D03*
X92232Y-53250D02*
D03*
X105222Y-60750D02*
D03*
X58505Y-31250D02*
D03*
X71495Y-38750D02*
D03*
G54D45*
X-94505Y-52250D02*
D03*
X-107495Y-59750D02*
D03*
G54D46*
X-47966Y-96205D02*
D03*
X-54660Y-109629D02*
D03*
G54D47*
X30845Y-100890D02*
D03*
X35231Y-115235D02*
D03*
G54D48*
X43760Y49366D02*
D03*
X54302Y60037D02*
D03*
G54D49*
X78244Y-17941D02*
D03*
X63755Y-14059D02*
D03*
G54D50*
X-58519Y30543D02*
D03*
X-71528Y38011D02*
D03*
G54D51*
X-64587Y13664D02*
D03*
X-79084Y17517D02*
D03*
G54D52*
X-42972Y-49433D02*
D03*
X-52813Y-60754D02*
D03*
M02*
