G04*
G04 #@! TF.GenerationSoftware,Altium Limited,Altium Designer,20.2.4 (192)*
G04*
G04 Layer_Color=8388736*
%FSLAX44Y44*%
%MOMM*%
G71*
G04*
G04 #@! TF.SameCoordinates,0F43FF0A-D758-409E-903F-A1448CC310CE*
G04*
G04*
G04 #@! TF.FilePolarity,Negative*
G04*
G01*
G75*
%ADD10C,0.2000*%
%ADD12C,0.1500*%
%ADD13C,0.2032*%
%ADD14C,0.1200*%
%ADD15R,6.6224X1.1360*%
%ADD16R,7.6384X1.6440*%
%ADD17C,1.5200*%
%ADD18C,0.1200*%
G36*
X22000Y-1000D02*
X20000Y-3000D01*
Y1000D01*
X22000Y3000D01*
Y-1000D01*
D02*
G37*
G36*
X18000Y1000D02*
Y-3000D01*
X16000Y-1000D01*
Y3000D01*
X18000Y1000D01*
D02*
G37*
G36*
X25428Y-2134D02*
X21964Y-4134D01*
X22696Y-1402D01*
X26160Y598D01*
X25428Y-2134D01*
D02*
G37*
G36*
X15304Y-1402D02*
X16036Y-4134D01*
X12572Y-2134D01*
X11840Y598D01*
X15304Y-1402D01*
D02*
G37*
G36*
X29160Y-4598D02*
X25696Y-6598D01*
X22964Y-5866D01*
X26428Y-3866D01*
X29160Y-4598D01*
D02*
G37*
G36*
X15036Y-5866D02*
X12304Y-6598D01*
X8840Y-4598D01*
X11572Y-3866D01*
X15036Y-5866D01*
D02*
G37*
G36*
X20000Y-4000D02*
X19000Y-7000D01*
X18000Y-4000D01*
X19000Y-2000D01*
X20000Y-4000D01*
D02*
G37*
G36*
X16902Y-4634D02*
X19000Y-7000D01*
X15902Y-6366D01*
X14670Y-4500D01*
X16902Y-4634D01*
D02*
G37*
G36*
X22098Y-6366D02*
X19000Y-7000D01*
X22098Y-7634D01*
X23330Y-9500D01*
X21098Y-9366D01*
X19000Y-7000D01*
X20000Y-10000D01*
X19000Y-12000D01*
X18000Y-10000D01*
X19000Y-7000D01*
X16902Y-9366D01*
X14670Y-9500D01*
X15902Y-7634D01*
X19000Y-7000D01*
X21098Y-4634D01*
X23330Y-4500D01*
X22098Y-6366D01*
D02*
G37*
G36*
X29160Y-9402D02*
X26428Y-10134D01*
X22964Y-8134D01*
X25696Y-7402D01*
X29160Y-9402D01*
D02*
G37*
G36*
X15036Y-8134D02*
X11572Y-10134D01*
X8840Y-9402D01*
X12304Y-7402D01*
X15036Y-8134D01*
D02*
G37*
G36*
X25428Y-11866D02*
X26160Y-14598D01*
X22696Y-12598D01*
X21964Y-9866D01*
X25428Y-11866D01*
D02*
G37*
G36*
X15304Y-12598D02*
X11840Y-14598D01*
X12572Y-11866D01*
X16036Y-9866D01*
X15304Y-12598D01*
D02*
G37*
G36*
X22000Y-13000D02*
Y-17000D01*
X20000Y-15000D01*
Y-11000D01*
X22000Y-13000D01*
D02*
G37*
G36*
X18000Y-15000D02*
X16000Y-17000D01*
Y-13000D01*
X18000Y-11000D01*
Y-15000D01*
D02*
G37*
G36*
X-47000Y-93000D02*
X-49000Y-95000D01*
Y-91000D01*
X-47000Y-89000D01*
Y-93000D01*
D02*
G37*
G36*
X-53000Y-91000D02*
Y-95000D01*
X-55000Y-93000D01*
Y-89000D01*
X-53000Y-91000D01*
D02*
G37*
G36*
X-43340Y-94268D02*
X-46804Y-96268D01*
X-46072Y-93536D01*
X-42608Y-91536D01*
X-43340Y-94268D01*
D02*
G37*
G36*
X-55928Y-93536D02*
X-55196Y-96268D01*
X-58660Y-94268D01*
X-59392Y-91536D01*
X-55928Y-93536D01*
D02*
G37*
G36*
X-38608Y-98464D02*
X-42072Y-100464D01*
X-44804Y-99732D01*
X-41340Y-97732D01*
X-38608Y-98464D01*
D02*
G37*
G36*
X-57196Y-99732D02*
X-59928Y-100464D01*
X-63392Y-98464D01*
X-60660Y-97732D01*
X-57196Y-99732D01*
D02*
G37*
G36*
X-38608Y-103536D02*
X-41340Y-104268D01*
X-44804Y-102268D01*
X-42072Y-101536D01*
X-38608Y-103536D01*
D02*
G37*
G36*
X-57196Y-102268D02*
X-60660Y-104268D01*
X-63392Y-103536D01*
X-59928Y-101536D01*
X-57196Y-102268D01*
D02*
G37*
G36*
X-43340Y-107732D02*
X-42608Y-110464D01*
X-46072Y-108464D01*
X-46804Y-105732D01*
X-43340Y-107732D01*
D02*
G37*
G36*
X-55928Y-108464D02*
X-59392Y-110464D01*
X-58660Y-107732D01*
X-55196Y-105732D01*
X-55928Y-108464D01*
D02*
G37*
G36*
X-47000Y-109000D02*
Y-113000D01*
X-49000Y-111000D01*
Y-107000D01*
X-47000Y-109000D01*
D02*
G37*
G36*
X-53000Y-111000D02*
X-55000Y-113000D01*
Y-109000D01*
X-53000Y-107000D01*
Y-111000D01*
D02*
G37*
G36*
X38000Y118000D02*
X36000Y116000D01*
Y120000D01*
X38000Y122000D01*
Y118000D01*
D02*
G37*
G36*
X32000Y120000D02*
Y116000D01*
X30000Y118000D01*
Y122000D01*
X32000Y120000D01*
D02*
G37*
G36*
X41660Y116732D02*
X38196Y114732D01*
X38928Y117464D01*
X42392Y119464D01*
X41660Y116732D01*
D02*
G37*
G36*
X29072Y117464D02*
X29804Y114732D01*
X26340Y116732D01*
X25608Y119464D01*
X29072Y117464D01*
D02*
G37*
G36*
X46392Y112536D02*
X42928Y110536D01*
X40196Y111268D01*
X43660Y113268D01*
X46392Y112536D01*
D02*
G37*
G36*
X27804Y111268D02*
X25072Y110536D01*
X21608Y112536D01*
X24340Y113268D01*
X27804Y111268D01*
D02*
G37*
G36*
X46392Y107464D02*
X43660Y106732D01*
X40196Y108732D01*
X42928Y109464D01*
X46392Y107464D01*
D02*
G37*
G36*
X27804Y108732D02*
X24340Y106732D01*
X21608Y107464D01*
X25072Y109464D01*
X27804Y108732D01*
D02*
G37*
G36*
X41660Y103268D02*
X42392Y100536D01*
X38928Y102536D01*
X38196Y105268D01*
X41660Y103268D01*
D02*
G37*
G36*
X29072Y102536D02*
X25608Y100536D01*
X26340Y103268D01*
X29804Y105268D01*
X29072Y102536D01*
D02*
G37*
G36*
X38000Y102000D02*
Y98000D01*
X36000Y100000D01*
Y104000D01*
X38000Y102000D01*
D02*
G37*
G36*
X32000Y100000D02*
X30000Y98000D01*
Y102000D01*
X32000Y104000D01*
Y100000D01*
D02*
G37*
G36*
X106000Y64000D02*
X104000Y62000D01*
Y66000D01*
X106000Y68000D01*
Y64000D01*
D02*
G37*
G36*
X102000Y66000D02*
Y62000D01*
X100000Y64000D01*
Y68000D01*
X102000Y66000D01*
D02*
G37*
G36*
X109428Y62866D02*
X105964Y60866D01*
X106696Y63598D01*
X110160Y65598D01*
X109428Y62866D01*
D02*
G37*
G36*
X99304Y63598D02*
X100036Y60866D01*
X96572Y62866D01*
X95840Y65598D01*
X99304Y63598D01*
D02*
G37*
G36*
X113160Y60402D02*
X109696Y58402D01*
X106964Y59134D01*
X110428Y61134D01*
X113160Y60402D01*
D02*
G37*
G36*
X99036Y59134D02*
X96304Y58402D01*
X92840Y60402D01*
X95572Y61134D01*
X99036Y59134D01*
D02*
G37*
G36*
X104000Y61000D02*
X103000Y58000D01*
X102000Y61000D01*
X103000Y63000D01*
X104000Y61000D01*
D02*
G37*
G36*
X100902Y60366D02*
X103000Y58000D01*
X99902Y58634D01*
X98670Y60500D01*
X100902Y60366D01*
D02*
G37*
G36*
X106098Y58634D02*
X103000Y58000D01*
X106098Y57366D01*
X107330Y55500D01*
X105098Y55634D01*
X103000Y58000D01*
X104000Y55000D01*
X103000Y53000D01*
X102000Y55000D01*
X103000Y58000D01*
X100902Y55634D01*
X98670Y55500D01*
X99902Y57366D01*
X103000Y58000D01*
X105098Y60366D01*
X107330Y60500D01*
X106098Y58634D01*
D02*
G37*
G36*
X113160Y55598D02*
X110428Y54866D01*
X106964Y56866D01*
X109696Y57598D01*
X113160Y55598D01*
D02*
G37*
G36*
X99036Y56866D02*
X95572Y54866D01*
X92840Y55598D01*
X96304Y57598D01*
X99036Y56866D01*
D02*
G37*
G36*
X109428Y53134D02*
X110160Y50402D01*
X106696Y52402D01*
X105964Y55134D01*
X109428Y53134D01*
D02*
G37*
G36*
X99304Y52402D02*
X95840Y50402D01*
X96572Y53134D01*
X100036Y55134D01*
X99304Y52402D01*
D02*
G37*
G36*
X106000Y52000D02*
Y48000D01*
X104000Y50000D01*
Y54000D01*
X106000Y52000D01*
D02*
G37*
G36*
X102000Y50000D02*
X100000Y48000D01*
Y52000D01*
X102000Y54000D01*
Y50000D01*
D02*
G37*
G36*
X213909Y53475D02*
X213752D01*
Y53484D01*
X213743Y53503D01*
X213734Y53530D01*
X213725Y53567D01*
X213697Y53660D01*
X213660Y53780D01*
X213604Y53909D01*
X213558Y54048D01*
X213493Y54168D01*
X213429Y54270D01*
X213419Y54279D01*
X213401Y54316D01*
X213364Y54353D01*
X213309Y54418D01*
X213244Y54473D01*
X213161Y54547D01*
X213068Y54612D01*
X212966Y54668D01*
X212957D01*
X212939Y54677D01*
X212892Y54695D01*
X212828Y54714D01*
X212754Y54723D01*
X212652Y54742D01*
X212532Y54751D01*
X211940D01*
Y50137D01*
Y50128D01*
Y50119D01*
Y50063D01*
Y49989D01*
X211949Y49888D01*
Y49795D01*
X211959Y49693D01*
X211968Y49610D01*
X211986Y49555D01*
Y49545D01*
X211996Y49536D01*
X212033Y49490D01*
X212088Y49425D01*
X212134Y49398D01*
X212181Y49361D01*
X212190D01*
X212208Y49351D01*
X212245Y49333D01*
X212282Y49324D01*
X212347Y49305D01*
X212412Y49287D01*
X212486Y49277D01*
X212782D01*
Y49120D01*
X209666D01*
Y49277D01*
X209906D01*
X209952Y49287D01*
X210008D01*
X210147Y49314D01*
X210211Y49342D01*
X210276Y49370D01*
X210285D01*
X210294Y49379D01*
X210341Y49416D01*
X210396Y49481D01*
X210452Y49573D01*
Y49583D01*
X210461Y49601D01*
X210470Y49629D01*
X210479Y49684D01*
X210489Y49758D01*
X210498Y49860D01*
X210507Y49980D01*
Y50137D01*
Y54751D01*
X209971D01*
X209869Y54742D01*
X209730Y54723D01*
X209592Y54686D01*
X209444Y54640D01*
X209305Y54575D01*
X209194Y54492D01*
X209176Y54473D01*
X209130Y54427D01*
X209065Y54344D01*
X208991Y54233D01*
X208908Y54085D01*
X208824Y53909D01*
X208760Y53706D01*
X208713Y53475D01*
X208547D01*
Y55093D01*
X213909D01*
Y53475D01*
D02*
G37*
G36*
X190204Y54936D02*
X190158D01*
X190111Y54926D01*
X190056D01*
X189917Y54899D01*
X189853Y54880D01*
X189788Y54862D01*
X189778D01*
X189760Y54852D01*
X189732Y54834D01*
X189686Y54816D01*
X189575Y54742D01*
X189510Y54695D01*
X189446Y54640D01*
X189436Y54631D01*
X189418Y54612D01*
X189390Y54575D01*
X189335Y54520D01*
X189261Y54436D01*
X189159Y54316D01*
X189104Y54251D01*
X189039Y54168D01*
X188965Y54085D01*
X188882Y53983D01*
X187754Y52624D01*
X189399Y50183D01*
X189409Y50174D01*
X189418Y50156D01*
X189436Y50128D01*
X189464Y50082D01*
X189538Y49980D01*
X189621Y49860D01*
X189723Y49730D01*
X189816Y49601D01*
X189908Y49499D01*
X189945Y49453D01*
X189982Y49425D01*
X189991Y49416D01*
X190010Y49407D01*
X190047Y49379D01*
X190102Y49361D01*
X190158Y49333D01*
X190231Y49305D01*
X190315Y49287D01*
X190398Y49277D01*
Y49120D01*
X187476D01*
Y49277D01*
X187532D01*
X187596Y49287D01*
X187661Y49296D01*
X187745Y49314D01*
X187818Y49333D01*
X187883Y49351D01*
X187929Y49379D01*
X187939D01*
X187948Y49398D01*
X187985Y49434D01*
X188013Y49499D01*
X188031Y49536D01*
Y49573D01*
Y49592D01*
Y49619D01*
X188013Y49666D01*
X187994Y49712D01*
Y49721D01*
X187985Y49740D01*
X187966Y49777D01*
X187939Y49823D01*
X187892Y49897D01*
X187846Y49980D01*
X187772Y50091D01*
X187689Y50211D01*
X186820Y51496D01*
X185905Y50387D01*
Y50378D01*
X185886Y50368D01*
X185868Y50341D01*
X185840Y50304D01*
X185775Y50220D01*
X185701Y50110D01*
X185627Y49998D01*
X185562Y49878D01*
X185516Y49777D01*
X185507Y49730D01*
X185498Y49693D01*
Y49684D01*
Y49675D01*
X185507Y49619D01*
X185544Y49545D01*
X185562Y49509D01*
X185599Y49462D01*
X185609D01*
X185618Y49444D01*
X185646Y49425D01*
X185683Y49398D01*
X185729Y49370D01*
X185775Y49342D01*
X185914Y49296D01*
X185932D01*
X185960Y49287D01*
X186043D01*
X186117Y49277D01*
X186293D01*
Y49120D01*
X184000D01*
Y49277D01*
X184018D01*
X184065Y49287D01*
X184139Y49305D01*
X184231Y49324D01*
X184324Y49351D01*
X184425Y49388D01*
X184527Y49434D01*
X184619Y49490D01*
X184638Y49499D01*
X184675Y49536D01*
X184740Y49592D01*
X184832Y49675D01*
X184952Y49786D01*
X185091Y49934D01*
X185174Y50017D01*
X185257Y50110D01*
X185350Y50220D01*
X185442Y50331D01*
X186626Y51774D01*
X185110Y54011D01*
Y54020D01*
X185091Y54039D01*
X185072Y54067D01*
X185054Y54104D01*
X184989Y54187D01*
X184915Y54298D01*
X184841Y54409D01*
X184767Y54510D01*
X184712Y54584D01*
X184693Y54612D01*
X184684Y54631D01*
X184675Y54640D01*
X184666Y54658D01*
X184610Y54714D01*
X184536Y54778D01*
X184444Y54834D01*
X184435D01*
X184425Y54843D01*
X184398Y54852D01*
X184361Y54871D01*
X184314Y54889D01*
X184268Y54908D01*
X184129Y54936D01*
Y55093D01*
X187088D01*
Y54936D01*
X186857D01*
X186801Y54926D01*
X186691Y54899D01*
X186635Y54880D01*
X186589Y54852D01*
X186570Y54834D01*
X186542Y54797D01*
X186506Y54732D01*
X186496Y54686D01*
X186487Y54640D01*
Y54621D01*
Y54584D01*
X186496Y54529D01*
X186515Y54473D01*
X186820Y54011D01*
X187569Y52902D01*
X188188Y53660D01*
X188197Y53669D01*
X188207Y53688D01*
X188235Y53715D01*
X188262Y53752D01*
X188336Y53863D01*
X188429Y53983D01*
X188521Y54122D01*
X188595Y54261D01*
X188650Y54390D01*
X188660Y54446D01*
X188669Y54492D01*
Y54501D01*
Y54510D01*
X188660Y54566D01*
X188641Y54640D01*
X188595Y54714D01*
Y54723D01*
X188586Y54732D01*
X188549Y54769D01*
X188484Y54825D01*
X188401Y54871D01*
X188392D01*
X188382Y54880D01*
X188345Y54889D01*
X188308Y54908D01*
X188253Y54917D01*
X188188Y54926D01*
X188105Y54936D01*
X188013D01*
Y55093D01*
X190204D01*
Y54936D01*
D02*
G37*
G36*
X196287Y53345D02*
X196380Y53327D01*
X196491Y53309D01*
X196602Y53271D01*
X196713Y53216D01*
X196814Y53151D01*
X196824Y53142D01*
X196861Y53114D01*
X196898Y53077D01*
X196953Y53013D01*
X197018Y52948D01*
X197073Y52855D01*
X197129Y52763D01*
X197166Y52652D01*
X197175Y52643D01*
X197184Y52597D01*
X197203Y52523D01*
X197221Y52421D01*
X197240Y52291D01*
X197249Y52125D01*
X197267Y51931D01*
Y51700D01*
Y50017D01*
Y50008D01*
Y49998D01*
Y49943D01*
X197277Y49860D01*
Y49758D01*
X197286Y49656D01*
X197304Y49564D01*
X197323Y49481D01*
X197351Y49416D01*
X197360D01*
X197369Y49398D01*
X197397Y49379D01*
X197434Y49361D01*
X197480Y49333D01*
X197545Y49314D01*
X197619Y49296D01*
X197711Y49277D01*
Y49120D01*
X195585D01*
Y49277D01*
X195594D01*
X195622Y49287D01*
X195668Y49296D01*
X195723Y49305D01*
X195788Y49333D01*
X195844Y49361D01*
X195908Y49407D01*
X195954Y49462D01*
Y49472D01*
X195964Y49490D01*
X195982Y49527D01*
X196001Y49573D01*
X196010Y49647D01*
X196028Y49749D01*
X196038Y49869D01*
Y50017D01*
Y51783D01*
Y51792D01*
Y51811D01*
Y51838D01*
Y51875D01*
Y51968D01*
X196028Y52079D01*
Y52190D01*
X196019Y52310D01*
X196010Y52402D01*
X196001Y52449D01*
X195991Y52476D01*
Y52486D01*
X195982Y52504D01*
X195964Y52569D01*
X195918Y52643D01*
X195853Y52708D01*
X195834Y52717D01*
X195788Y52744D01*
X195723Y52772D01*
X195631Y52782D01*
X195603D01*
X195566Y52772D01*
X195511Y52763D01*
X195455Y52744D01*
X195391Y52726D01*
X195326Y52689D01*
X195252Y52643D01*
X195243Y52634D01*
X195215Y52615D01*
X195178Y52587D01*
X195132Y52541D01*
X195067Y52476D01*
X195002Y52412D01*
X194928Y52328D01*
X194854Y52227D01*
Y50017D01*
Y50008D01*
Y49998D01*
Y49943D01*
Y49869D01*
X194864Y49777D01*
X194873Y49684D01*
X194882Y49592D01*
X194900Y49509D01*
X194928Y49453D01*
X194937Y49444D01*
X194947Y49425D01*
X194974Y49398D01*
X195012Y49370D01*
X195067Y49333D01*
X195132Y49305D01*
X195215Y49287D01*
X195317Y49277D01*
Y49120D01*
X193190D01*
Y49277D01*
X193255D01*
X193292Y49287D01*
X193375Y49305D01*
X193458Y49351D01*
X193468D01*
X193477Y49370D01*
X193514Y49407D01*
X193560Y49462D01*
X193588Y49536D01*
Y49545D01*
X193597Y49564D01*
Y49592D01*
X193606Y49638D01*
X193615Y49703D01*
Y49786D01*
X193625Y49888D01*
Y50017D01*
Y51783D01*
Y51792D01*
Y51811D01*
Y51838D01*
Y51875D01*
Y51968D01*
X193615Y52079D01*
Y52199D01*
X193606Y52310D01*
X193597Y52412D01*
X193588Y52449D01*
X193578Y52476D01*
Y52486D01*
X193569Y52504D01*
X193551Y52560D01*
X193505Y52624D01*
X193431Y52698D01*
X193412Y52708D01*
X193366Y52744D01*
X193292Y52772D01*
X193209Y52782D01*
X193144D01*
X193107Y52772D01*
X193005Y52744D01*
X192894Y52689D01*
X192885Y52680D01*
X192857Y52661D01*
X192811Y52624D01*
X192756Y52578D01*
X192691Y52513D01*
X192617Y52439D01*
X192534Y52338D01*
X192451Y52227D01*
Y50017D01*
Y50008D01*
Y49998D01*
Y49943D01*
X192460Y49869D01*
Y49777D01*
X192469Y49684D01*
X192487Y49583D01*
X192506Y49499D01*
X192534Y49434D01*
X192543Y49425D01*
X192552Y49416D01*
X192580Y49388D01*
X192617Y49361D01*
X192663Y49333D01*
X192728Y49314D01*
X192802Y49287D01*
X192894Y49277D01*
Y49120D01*
X190777D01*
Y49277D01*
X190786D01*
X190823Y49287D01*
X190870Y49296D01*
X190925Y49305D01*
X190980Y49324D01*
X191045Y49351D01*
X191101Y49398D01*
X191147Y49444D01*
Y49453D01*
X191156Y49462D01*
X191175Y49499D01*
X191184Y49555D01*
X191202Y49629D01*
X191212Y49721D01*
X191221Y49851D01*
Y50017D01*
Y52338D01*
Y52347D01*
Y52356D01*
Y52412D01*
Y52495D01*
X191212Y52587D01*
X191202Y52689D01*
X191184Y52782D01*
X191165Y52865D01*
X191138Y52920D01*
Y52929D01*
X191119Y52939D01*
X191101Y52957D01*
X191064Y52985D01*
X191017Y53013D01*
X190953Y53040D01*
X190870Y53059D01*
X190777Y53077D01*
Y53235D01*
X192451D01*
Y52689D01*
X192469Y52708D01*
X192506Y52754D01*
X192571Y52818D01*
X192654Y52892D01*
X192756Y52976D01*
X192857Y53068D01*
X192968Y53142D01*
X193079Y53207D01*
X193088Y53216D01*
X193125Y53235D01*
X193190Y53253D01*
X193264Y53281D01*
X193356Y53309D01*
X193468Y53336D01*
X193578Y53345D01*
X193708Y53355D01*
X193773D01*
X193847Y53345D01*
X193939Y53336D01*
X194050Y53309D01*
X194161Y53281D01*
X194272Y53235D01*
X194374Y53170D01*
X194383Y53161D01*
X194420Y53133D01*
X194466Y53096D01*
X194522Y53031D01*
X194595Y52948D01*
X194660Y52855D01*
X194725Y52735D01*
X194780Y52606D01*
Y52615D01*
X194799Y52624D01*
X194845Y52670D01*
X194910Y52744D01*
X195002Y52828D01*
X195104Y52920D01*
X195224Y53013D01*
X195344Y53105D01*
X195464Y53179D01*
X195483Y53188D01*
X195520Y53207D01*
X195585Y53235D01*
X195668Y53271D01*
X195770Y53299D01*
X195890Y53327D01*
X196010Y53345D01*
X196140Y53355D01*
X196213D01*
X196287Y53345D01*
D02*
G37*
G36*
X217645D02*
X217700Y53336D01*
X217765Y53318D01*
X217830Y53290D01*
X217894Y53253D01*
X217950Y53197D01*
X217959Y53188D01*
X217978Y53170D01*
X217996Y53133D01*
X218024Y53087D01*
X218051Y53031D01*
X218079Y52957D01*
X218088Y52874D01*
X218098Y52772D01*
Y52763D01*
Y52726D01*
X218088Y52670D01*
X218079Y52606D01*
X218061Y52532D01*
X218033Y52449D01*
X217996Y52375D01*
X217950Y52310D01*
X217941Y52301D01*
X217922Y52282D01*
X217894Y52264D01*
X217848Y52236D01*
X217746Y52181D01*
X217682Y52162D01*
X217608Y52153D01*
X217571D01*
X217525Y52162D01*
X217469Y52171D01*
X217404Y52190D01*
X217340Y52217D01*
X217266Y52255D01*
X217201Y52301D01*
X217192Y52310D01*
X217173Y52328D01*
X217118Y52375D01*
X217044Y52430D01*
X217016Y52458D01*
X216998Y52467D01*
X216988Y52476D01*
X216970Y52486D01*
X216942Y52495D01*
X216887D01*
X216822Y52486D01*
X216748Y52449D01*
X216702Y52430D01*
X216655Y52393D01*
X216646Y52384D01*
X216628Y52365D01*
X216591Y52328D01*
X216554Y52282D01*
X216517Y52227D01*
X216471Y52153D01*
X216424Y52070D01*
X216387Y51968D01*
X216378Y51949D01*
X216369Y51894D01*
X216341Y51811D01*
X216323Y51691D01*
X216295Y51552D01*
X216267Y51395D01*
X216258Y51210D01*
X216249Y51025D01*
Y50082D01*
Y49841D01*
Y49832D01*
Y49804D01*
Y49758D01*
Y49703D01*
X216258Y49592D01*
X216267Y49555D01*
X216276Y49518D01*
Y49509D01*
X216286Y49499D01*
X216313Y49453D01*
X216369Y49398D01*
X216434Y49342D01*
X216443D01*
X216452Y49333D01*
X216480Y49324D01*
X216517Y49314D01*
X216563Y49305D01*
X216628Y49296D01*
X216702Y49287D01*
X216785Y49277D01*
Y49120D01*
X214557D01*
Y49277D01*
X214566D01*
X214603Y49287D01*
X214649D01*
X214705Y49305D01*
X214825Y49342D01*
X214871Y49379D01*
X214917Y49416D01*
X214926Y49425D01*
X214936Y49444D01*
X214954Y49490D01*
X214973Y49545D01*
X214991Y49638D01*
X215000Y49758D01*
X215019Y49906D01*
Y49989D01*
Y50091D01*
Y52365D01*
Y52384D01*
Y52421D01*
Y52486D01*
Y52550D01*
X215010Y52624D01*
X215000Y52698D01*
X214991Y52763D01*
X214982Y52809D01*
Y52818D01*
X214973Y52828D01*
X214945Y52883D01*
X214908Y52939D01*
X214853Y52994D01*
X214834Y53003D01*
X214816Y53013D01*
X214788Y53022D01*
X214742Y53040D01*
X214695Y53050D01*
X214631Y53068D01*
X214557Y53077D01*
Y53235D01*
X216249D01*
Y52301D01*
X216258Y52310D01*
X216267Y52328D01*
X216286Y52365D01*
X216313Y52402D01*
X216397Y52513D01*
X216489Y52643D01*
X216600Y52791D01*
X216720Y52929D01*
X216840Y53050D01*
X216905Y53096D01*
X216961Y53142D01*
X216979Y53151D01*
X217016Y53179D01*
X217071Y53207D01*
X217155Y53253D01*
X217247Y53290D01*
X217349Y53318D01*
X217451Y53345D01*
X217561Y53355D01*
X217598D01*
X217645Y53345D01*
D02*
G37*
G36*
X204202D02*
X204285Y53336D01*
X204387Y53318D01*
X204498Y53281D01*
X204608Y53244D01*
X204729Y53188D01*
X204738D01*
X204747Y53179D01*
X204793Y53161D01*
X204858Y53133D01*
X204914Y53123D01*
X204960D01*
X205006Y53133D01*
X205043Y53151D01*
X205052Y53161D01*
X205080Y53188D01*
X205098Y53216D01*
X205126Y53253D01*
X205163Y53290D01*
X205200Y53345D01*
X205357D01*
X205422Y51940D01*
X205265D01*
Y51949D01*
X205256Y51968D01*
X205237Y51996D01*
X205219Y52042D01*
X205163Y52153D01*
X205098Y52282D01*
X205015Y52421D01*
X204914Y52560D01*
X204821Y52689D01*
X204710Y52791D01*
X204701Y52800D01*
X204664Y52828D01*
X204608Y52865D01*
X204534Y52911D01*
X204451Y52948D01*
X204350Y52985D01*
X204248Y53013D01*
X204146Y53022D01*
X204118D01*
X204081Y53013D01*
X204044Y53003D01*
X203943Y52966D01*
X203887Y52939D01*
X203841Y52892D01*
X203832Y52883D01*
X203823Y52874D01*
X203804Y52846D01*
X203786Y52809D01*
X203739Y52726D01*
X203730Y52670D01*
X203721Y52615D01*
Y52606D01*
Y52597D01*
X203730Y52541D01*
X203758Y52467D01*
X203804Y52393D01*
X203813Y52384D01*
X203832Y52356D01*
X203878Y52310D01*
X203952Y52245D01*
X204054Y52162D01*
X204118Y52106D01*
X204192Y52051D01*
X204276Y51996D01*
X204368Y51922D01*
X204470Y51857D01*
X204581Y51774D01*
X204590Y51764D01*
X204608Y51755D01*
X204645Y51727D01*
X204682Y51700D01*
X204793Y51617D01*
X204932Y51515D01*
X205071Y51404D01*
X205209Y51274D01*
X205339Y51154D01*
X205385Y51090D01*
X205431Y51034D01*
X205441Y51025D01*
X205459Y50979D01*
X205496Y50914D01*
X205533Y50831D01*
X205570Y50729D01*
X205607Y50618D01*
X205625Y50489D01*
X205635Y50350D01*
Y50331D01*
Y50294D01*
X205625Y50220D01*
X205616Y50137D01*
X205588Y50036D01*
X205561Y49925D01*
X205515Y49804D01*
X205459Y49675D01*
X205450Y49656D01*
X205431Y49619D01*
X205394Y49564D01*
X205339Y49490D01*
X205265Y49407D01*
X205191Y49324D01*
X205089Y49240D01*
X204978Y49166D01*
X204969Y49157D01*
X204923Y49139D01*
X204858Y49111D01*
X204784Y49083D01*
X204682Y49056D01*
X204562Y49028D01*
X204442Y49009D01*
X204303Y49000D01*
X204248D01*
X204183Y49009D01*
X204100Y49019D01*
X203980Y49046D01*
X203850Y49074D01*
X203702Y49120D01*
X203527Y49176D01*
X203517D01*
X203508Y49185D01*
X203453Y49203D01*
X203397Y49222D01*
X203342Y49231D01*
X203323D01*
X203296Y49222D01*
X203259Y49203D01*
X203222Y49176D01*
X203185Y49139D01*
X203148Y49083D01*
X203111Y49009D01*
X202953D01*
X202880Y50489D01*
X203037D01*
Y50479D01*
X203046Y50461D01*
X203055Y50433D01*
X203074Y50396D01*
X203120Y50285D01*
X203175Y50165D01*
X203249Y50017D01*
X203342Y49878D01*
X203444Y49740D01*
X203564Y49619D01*
X203582Y49610D01*
X203619Y49573D01*
X203684Y49527D01*
X203776Y49481D01*
X203869Y49425D01*
X203980Y49379D01*
X204100Y49342D01*
X204211Y49333D01*
X204248D01*
X204285Y49342D01*
X204331Y49351D01*
X204442Y49388D01*
X204498Y49416D01*
X204553Y49462D01*
X204562Y49472D01*
X204571Y49490D01*
X204599Y49509D01*
X204627Y49545D01*
X204673Y49647D01*
X204682Y49703D01*
X204692Y49767D01*
Y49777D01*
Y49804D01*
X204682Y49841D01*
X204673Y49897D01*
X204655Y49952D01*
X204636Y50017D01*
X204599Y50072D01*
X204553Y50137D01*
X204544Y50146D01*
X204525Y50165D01*
X204488Y50202D01*
X204433Y50257D01*
X204350Y50322D01*
X204257Y50396D01*
X204128Y50489D01*
X203971Y50599D01*
X203961Y50609D01*
X203943Y50618D01*
X203906Y50646D01*
X203860Y50673D01*
X203749Y50766D01*
X203610Y50868D01*
X203471Y50979D01*
X203323Y51099D01*
X203203Y51210D01*
X203157Y51265D01*
X203111Y51311D01*
X203101Y51330D01*
X203064Y51376D01*
X203018Y51450D01*
X202972Y51543D01*
X202917Y51663D01*
X202870Y51801D01*
X202833Y51949D01*
X202824Y52106D01*
Y52116D01*
Y52125D01*
Y52153D01*
X202833Y52190D01*
X202843Y52273D01*
X202861Y52393D01*
X202907Y52523D01*
X202963Y52670D01*
X203037Y52818D01*
X203148Y52966D01*
X203166Y52985D01*
X203212Y53031D01*
X203286Y53087D01*
X203388Y53161D01*
X203517Y53235D01*
X203675Y53290D01*
X203869Y53336D01*
X204081Y53355D01*
X204137D01*
X204202Y53345D01*
D02*
G37*
G36*
X200531D02*
X200661Y53327D01*
X200809Y53290D01*
X200966Y53253D01*
X201114Y53188D01*
X201252Y53105D01*
X201271Y53096D01*
X201308Y53059D01*
X201363Y53013D01*
X201437Y52948D01*
X201511Y52865D01*
X201585Y52772D01*
X201650Y52670D01*
X201696Y52560D01*
Y52550D01*
X201705Y52523D01*
X201715Y52467D01*
X201733Y52384D01*
X201742Y52273D01*
Y52208D01*
X201751Y52125D01*
Y52042D01*
X201761Y51940D01*
Y51838D01*
Y51718D01*
Y50119D01*
Y50110D01*
Y50072D01*
Y50026D01*
Y49971D01*
X201770Y49851D01*
Y49804D01*
X201779Y49767D01*
Y49758D01*
X201798Y49730D01*
X201816Y49693D01*
X201844Y49656D01*
X201853D01*
X201872Y49647D01*
X201909Y49638D01*
X201946Y49629D01*
X201964D01*
X202020Y49647D01*
X202047Y49666D01*
X202094Y49693D01*
X202131Y49730D01*
X202177Y49786D01*
X202316Y49684D01*
X202306Y49666D01*
X202278Y49629D01*
X202232Y49573D01*
X202177Y49499D01*
X202103Y49425D01*
X202029Y49342D01*
X201946Y49268D01*
X201853Y49203D01*
X201844Y49194D01*
X201816Y49185D01*
X201761Y49157D01*
X201696Y49139D01*
X201622Y49111D01*
X201530Y49083D01*
X201428Y49074D01*
X201317Y49065D01*
X201262D01*
X201197Y49074D01*
X201114Y49083D01*
X201030Y49102D01*
X200938Y49129D01*
X200846Y49166D01*
X200762Y49222D01*
X200753Y49231D01*
X200735Y49250D01*
X200697Y49296D01*
X200661Y49351D01*
X200624Y49416D01*
X200587Y49509D01*
X200550Y49610D01*
X200531Y49730D01*
X200522Y49721D01*
X200494Y49703D01*
X200457Y49666D01*
X200402Y49629D01*
X200337Y49573D01*
X200263Y49518D01*
X200170Y49462D01*
X200078Y49398D01*
X199865Y49277D01*
X199634Y49166D01*
X199523Y49129D01*
X199403Y49092D01*
X199283Y49074D01*
X199172Y49065D01*
X199116D01*
X199052Y49074D01*
X198969Y49092D01*
X198876Y49120D01*
X198775Y49157D01*
X198682Y49213D01*
X198589Y49287D01*
X198580Y49296D01*
X198553Y49333D01*
X198516Y49379D01*
X198479Y49444D01*
X198432Y49527D01*
X198395Y49629D01*
X198368Y49740D01*
X198358Y49869D01*
Y49878D01*
Y49888D01*
Y49915D01*
X198368Y49952D01*
X198377Y50036D01*
X198405Y50156D01*
X198460Y50285D01*
X198525Y50424D01*
X198626Y50572D01*
X198682Y50637D01*
X198756Y50710D01*
X198765Y50720D01*
X198775Y50729D01*
X198802Y50747D01*
X198839Y50784D01*
X198895Y50821D01*
X198959Y50868D01*
X199033Y50914D01*
X199135Y50979D01*
X199237Y51043D01*
X199366Y51126D01*
X199514Y51210D01*
X199681Y51293D01*
X199856Y51395D01*
X200060Y51496D01*
X200282Y51607D01*
X200531Y51718D01*
Y52134D01*
Y52144D01*
Y52153D01*
Y52208D01*
Y52291D01*
X200522Y52384D01*
Y52476D01*
X200513Y52578D01*
X200494Y52661D01*
X200476Y52717D01*
Y52726D01*
X200466Y52735D01*
X200439Y52791D01*
X200374Y52855D01*
X200337Y52892D01*
X200282Y52929D01*
X200272D01*
X200254Y52948D01*
X200226Y52957D01*
X200189Y52976D01*
X200087Y53003D01*
X199967Y53022D01*
X199921D01*
X199865Y53013D01*
X199801Y53003D01*
X199643Y52966D01*
X199570Y52939D01*
X199496Y52892D01*
X199486D01*
X199477Y52874D01*
X199440Y52837D01*
X199394Y52782D01*
X199385Y52744D01*
X199375Y52708D01*
Y52689D01*
X199394Y52643D01*
X199431Y52569D01*
X199459Y52523D01*
X199505Y52476D01*
X199514Y52467D01*
X199533Y52449D01*
X199560Y52412D01*
X199588Y52365D01*
X199643Y52245D01*
X199662Y52181D01*
X199671Y52116D01*
Y52106D01*
Y52079D01*
X199662Y52042D01*
X199653Y51986D01*
X199634Y51931D01*
X199597Y51866D01*
X199560Y51801D01*
X199505Y51746D01*
X199496Y51737D01*
X199477Y51727D01*
X199440Y51700D01*
X199394Y51672D01*
X199338Y51644D01*
X199265Y51626D01*
X199181Y51607D01*
X199089Y51598D01*
X199043D01*
X198987Y51607D01*
X198932Y51617D01*
X198858Y51635D01*
X198775Y51672D01*
X198701Y51709D01*
X198626Y51764D01*
X198617Y51774D01*
X198599Y51792D01*
X198571Y51829D01*
X198534Y51875D01*
X198497Y51931D01*
X198469Y51996D01*
X198451Y52070D01*
X198442Y52153D01*
Y52171D01*
Y52208D01*
X198451Y52264D01*
X198469Y52347D01*
X198506Y52439D01*
X198543Y52541D01*
X198608Y52643D01*
X198691Y52754D01*
X198701Y52763D01*
X198738Y52800D01*
X198793Y52855D01*
X198876Y52920D01*
X198969Y52985D01*
X199089Y53059D01*
X199228Y53133D01*
X199385Y53197D01*
X199394D01*
X199403Y53207D01*
X199431Y53216D01*
X199468Y53225D01*
X199551Y53244D01*
X199671Y53281D01*
X199810Y53309D01*
X199976Y53327D01*
X200143Y53345D01*
X200328Y53355D01*
X200420D01*
X200531Y53345D01*
D02*
G37*
G36*
X224551D02*
X224607Y53336D01*
X224671Y53327D01*
X224819Y53290D01*
X224986Y53225D01*
X225171Y53133D01*
X225263Y53077D01*
X225356Y53013D01*
X225439Y52929D01*
X225531Y52837D01*
X225541Y52828D01*
X225550Y52809D01*
X225578Y52782D01*
X225605Y52744D01*
X225642Y52689D01*
X225679Y52624D01*
X225725Y52550D01*
X225772Y52458D01*
X225809Y52356D01*
X225855Y52245D01*
X225901Y52125D01*
X225938Y51986D01*
X225975Y51838D01*
X226003Y51681D01*
X226021Y51515D01*
X226031Y51330D01*
X223775D01*
Y51321D01*
Y51293D01*
X223784Y51247D01*
Y51191D01*
X223793Y51126D01*
X223811Y51043D01*
X223839Y50858D01*
X223895Y50646D01*
X223978Y50433D01*
X224080Y50220D01*
X224209Y50026D01*
X224218Y50008D01*
X224265Y49971D01*
X224329Y49915D01*
X224412Y49851D01*
X224514Y49777D01*
X224644Y49721D01*
X224782Y49684D01*
X224939Y49666D01*
X224986D01*
X225032Y49675D01*
X225097Y49684D01*
X225171Y49703D01*
X225245Y49721D01*
X225328Y49758D01*
X225411Y49804D01*
X225420Y49814D01*
X225448Y49832D01*
X225494Y49869D01*
X225550Y49925D01*
X225624Y49998D01*
X225698Y50091D01*
X225781Y50202D01*
X225873Y50341D01*
X226031Y50248D01*
Y50239D01*
X226012Y50220D01*
X225993Y50183D01*
X225975Y50137D01*
X225938Y50082D01*
X225901Y50017D01*
X225809Y49869D01*
X225698Y49712D01*
X225568Y49555D01*
X225429Y49398D01*
X225356Y49333D01*
X225282Y49277D01*
X225263Y49268D01*
X225208Y49231D01*
X225124Y49194D01*
X225014Y49139D01*
X224875Y49092D01*
X224718Y49046D01*
X224542Y49009D01*
X224348Y49000D01*
X224311D01*
X224265Y49009D01*
X224200D01*
X224126Y49019D01*
X224033Y49037D01*
X223932Y49056D01*
X223830Y49092D01*
X223719Y49129D01*
X223608Y49176D01*
X223488Y49231D01*
X223377Y49296D01*
X223266Y49379D01*
X223155Y49472D01*
X223053Y49583D01*
X222961Y49703D01*
Y49712D01*
X222943Y49730D01*
X222924Y49758D01*
X222906Y49804D01*
X222878Y49860D01*
X222841Y49925D01*
X222813Y49998D01*
X222776Y50091D01*
X222739Y50183D01*
X222711Y50294D01*
X222647Y50535D01*
X222610Y50803D01*
X222591Y51108D01*
Y51117D01*
Y51154D01*
Y51210D01*
X222600Y51274D01*
X222610Y51367D01*
X222619Y51469D01*
X222637Y51579D01*
X222665Y51700D01*
X222730Y51959D01*
X222776Y52097D01*
X222822Y52236D01*
X222887Y52365D01*
X222961Y52495D01*
X223044Y52624D01*
X223146Y52744D01*
X223155Y52754D01*
X223174Y52772D01*
X223201Y52800D01*
X223248Y52837D01*
X223294Y52883D01*
X223358Y52939D01*
X223433Y52994D01*
X223516Y53050D01*
X223710Y53161D01*
X223932Y53262D01*
X224052Y53299D01*
X224181Y53327D01*
X224311Y53345D01*
X224450Y53355D01*
X224514D01*
X224551Y53345D01*
D02*
G37*
G36*
X220548D02*
X220603Y53336D01*
X220668Y53327D01*
X220816Y53290D01*
X220982Y53225D01*
X221167Y53133D01*
X221260Y53077D01*
X221352Y53013D01*
X221435Y52929D01*
X221528Y52837D01*
X221537Y52828D01*
X221546Y52809D01*
X221574Y52782D01*
X221602Y52744D01*
X221639Y52689D01*
X221676Y52624D01*
X221722Y52550D01*
X221768Y52458D01*
X221805Y52356D01*
X221852Y52245D01*
X221898Y52125D01*
X221935Y51986D01*
X221972Y51838D01*
X221999Y51681D01*
X222018Y51515D01*
X222027Y51330D01*
X219771D01*
Y51321D01*
Y51293D01*
X219781Y51247D01*
Y51191D01*
X219790Y51126D01*
X219808Y51043D01*
X219836Y50858D01*
X219891Y50646D01*
X219975Y50433D01*
X220076Y50220D01*
X220206Y50026D01*
X220215Y50008D01*
X220261Y49971D01*
X220326Y49915D01*
X220409Y49851D01*
X220511Y49777D01*
X220640Y49721D01*
X220779Y49684D01*
X220936Y49666D01*
X220982D01*
X221029Y49675D01*
X221093Y49684D01*
X221167Y49703D01*
X221241Y49721D01*
X221325Y49758D01*
X221408Y49804D01*
X221417Y49814D01*
X221445Y49832D01*
X221491Y49869D01*
X221546Y49925D01*
X221620Y49998D01*
X221694Y50091D01*
X221777Y50202D01*
X221870Y50341D01*
X222027Y50248D01*
Y50239D01*
X222009Y50220D01*
X221990Y50183D01*
X221972Y50137D01*
X221935Y50082D01*
X221898Y50017D01*
X221805Y49869D01*
X221694Y49712D01*
X221565Y49555D01*
X221426Y49398D01*
X221352Y49333D01*
X221278Y49277D01*
X221260Y49268D01*
X221204Y49231D01*
X221121Y49194D01*
X221010Y49139D01*
X220871Y49092D01*
X220714Y49046D01*
X220539Y49009D01*
X220344Y49000D01*
X220308D01*
X220261Y49009D01*
X220196D01*
X220123Y49019D01*
X220030Y49037D01*
X219928Y49056D01*
X219827Y49092D01*
X219716Y49129D01*
X219605Y49176D01*
X219485Y49231D01*
X219374Y49296D01*
X219263Y49379D01*
X219152Y49472D01*
X219050Y49583D01*
X218958Y49703D01*
Y49712D01*
X218939Y49730D01*
X218921Y49758D01*
X218902Y49804D01*
X218874Y49860D01*
X218837Y49925D01*
X218810Y49998D01*
X218773Y50091D01*
X218736Y50183D01*
X218708Y50294D01*
X218643Y50535D01*
X218606Y50803D01*
X218588Y51108D01*
Y51117D01*
Y51154D01*
Y51210D01*
X218597Y51274D01*
X218606Y51367D01*
X218615Y51469D01*
X218634Y51579D01*
X218662Y51700D01*
X218727Y51959D01*
X218773Y52097D01*
X218819Y52236D01*
X218884Y52365D01*
X218958Y52495D01*
X219041Y52624D01*
X219142Y52744D01*
X219152Y52754D01*
X219170Y52772D01*
X219198Y52800D01*
X219244Y52837D01*
X219290Y52883D01*
X219355Y52939D01*
X219429Y52994D01*
X219512Y53050D01*
X219706Y53161D01*
X219928Y53262D01*
X220049Y53299D01*
X220178Y53327D01*
X220308Y53345D01*
X220446Y53355D01*
X220511D01*
X220548Y53345D01*
D02*
G37*
G36*
X206385Y-49926D02*
X206200D01*
Y-49916D01*
X206191Y-49889D01*
X206182Y-49852D01*
X206172Y-49805D01*
X206154Y-49741D01*
X206136Y-49667D01*
X206071Y-49500D01*
X205987Y-49306D01*
X205877Y-49112D01*
X205738Y-48918D01*
X205562Y-48733D01*
X205553Y-48724D01*
X205544Y-48714D01*
X205516Y-48687D01*
X205479Y-48659D01*
X205433Y-48622D01*
X205377Y-48585D01*
X205239Y-48502D01*
X205082Y-48419D01*
X204897Y-48345D01*
X204693Y-48289D01*
X204591Y-48280D01*
X204480Y-48271D01*
X204407D01*
X204323Y-48280D01*
X204222Y-48298D01*
X204111Y-48326D01*
X203990Y-48372D01*
X203870Y-48428D01*
X203769Y-48511D01*
X203759Y-48520D01*
X203732Y-48557D01*
X203685Y-48604D01*
X203639Y-48668D01*
X203593Y-48751D01*
X203547Y-48844D01*
X203519Y-48955D01*
X203510Y-49066D01*
Y-49075D01*
Y-49103D01*
X203519Y-49140D01*
Y-49186D01*
X203547Y-49297D01*
X203602Y-49417D01*
X203611Y-49426D01*
X203630Y-49454D01*
X203658Y-49491D01*
X203695Y-49547D01*
X203750Y-49611D01*
X203824Y-49685D01*
X203907Y-49759D01*
X204009Y-49833D01*
X204018Y-49842D01*
X204055Y-49861D01*
X204120Y-49898D01*
X204212Y-49944D01*
X204268Y-49981D01*
X204342Y-50018D01*
X204416Y-50055D01*
X204508Y-50101D01*
X204601Y-50157D01*
X204712Y-50212D01*
X204841Y-50277D01*
X204970Y-50342D01*
X204980Y-50351D01*
X205017Y-50360D01*
X205072Y-50388D01*
X205137Y-50425D01*
X205229Y-50471D01*
X205322Y-50527D01*
X205433Y-50591D01*
X205544Y-50656D01*
X205784Y-50804D01*
X206015Y-50970D01*
X206126Y-51063D01*
X206228Y-51146D01*
X206320Y-51238D01*
X206394Y-51322D01*
Y-51331D01*
X206413Y-51340D01*
X206431Y-51368D01*
X206450Y-51405D01*
X206505Y-51497D01*
X206579Y-51618D01*
X206644Y-51775D01*
X206699Y-51950D01*
X206736Y-52154D01*
X206755Y-52366D01*
Y-52376D01*
Y-52403D01*
Y-52440D01*
X206746Y-52496D01*
X206736Y-52561D01*
X206727Y-52635D01*
X206681Y-52810D01*
X206607Y-53004D01*
X206561Y-53115D01*
X206505Y-53226D01*
X206441Y-53337D01*
X206357Y-53439D01*
X206265Y-53550D01*
X206163Y-53652D01*
X206154Y-53661D01*
X206136Y-53670D01*
X206108Y-53698D01*
X206061Y-53735D01*
X205997Y-53772D01*
X205932Y-53818D01*
X205849Y-53874D01*
X205756Y-53920D01*
X205655Y-53966D01*
X205544Y-54021D01*
X205424Y-54068D01*
X205294Y-54105D01*
X205155Y-54142D01*
X205007Y-54160D01*
X204850Y-54179D01*
X204684Y-54188D01*
X204582D01*
X204508Y-54179D01*
X204425Y-54169D01*
X204333Y-54160D01*
X204148Y-54123D01*
X204138D01*
X204101Y-54114D01*
X204046Y-54095D01*
X203972Y-54077D01*
X203889Y-54049D01*
X203778Y-54012D01*
X203658Y-53975D01*
X203519Y-53920D01*
X203510D01*
X203482Y-53901D01*
X203445Y-53892D01*
X203399Y-53874D01*
X203279Y-53846D01*
X203168Y-53827D01*
X203149D01*
X203094Y-53836D01*
X203020Y-53864D01*
X202927Y-53920D01*
X202918D01*
X202909Y-53938D01*
X202853Y-53984D01*
X202789Y-54068D01*
X202724Y-54188D01*
X202567D01*
Y-51932D01*
X202724D01*
Y-51941D01*
X202733Y-51969D01*
X202742Y-52024D01*
X202761Y-52089D01*
X202789Y-52172D01*
X202816Y-52256D01*
X202853Y-52357D01*
X202890Y-52468D01*
X202992Y-52709D01*
X203121Y-52949D01*
X203279Y-53180D01*
X203362Y-53282D01*
X203463Y-53383D01*
X203473Y-53393D01*
X203491Y-53402D01*
X203519Y-53430D01*
X203565Y-53457D01*
X203611Y-53494D01*
X203676Y-53541D01*
X203824Y-53633D01*
X204000Y-53726D01*
X204203Y-53809D01*
X204425Y-53864D01*
X204545Y-53874D01*
X204665Y-53883D01*
X204749D01*
X204832Y-53864D01*
X204952Y-53846D01*
X205072Y-53818D01*
X205202Y-53772D01*
X205331Y-53707D01*
X205451Y-53615D01*
X205460Y-53605D01*
X205497Y-53568D01*
X205544Y-53513D01*
X205599Y-53439D01*
X205655Y-53347D01*
X205701Y-53236D01*
X205738Y-53125D01*
X205747Y-52995D01*
Y-52986D01*
Y-52958D01*
X205738Y-52921D01*
X205729Y-52866D01*
X205701Y-52736D01*
X205664Y-52662D01*
X205627Y-52588D01*
X205618Y-52579D01*
X205609Y-52551D01*
X205581Y-52514D01*
X205544Y-52468D01*
X205497Y-52403D01*
X205433Y-52339D01*
X205368Y-52274D01*
X205285Y-52209D01*
X205276Y-52200D01*
X205239Y-52172D01*
X205183Y-52135D01*
X205100Y-52080D01*
X204989Y-52015D01*
X204841Y-51932D01*
X204675Y-51839D01*
X204471Y-51738D01*
X204462Y-51729D01*
X204434Y-51719D01*
X204397Y-51701D01*
X204342Y-51673D01*
X204268Y-51636D01*
X204194Y-51599D01*
X204018Y-51507D01*
X203824Y-51396D01*
X203630Y-51285D01*
X203445Y-51174D01*
X203371Y-51118D01*
X203297Y-51063D01*
X203279Y-51054D01*
X203242Y-51017D01*
X203177Y-50952D01*
X203094Y-50878D01*
X203010Y-50785D01*
X202918Y-50675D01*
X202835Y-50564D01*
X202752Y-50434D01*
X202742Y-50416D01*
X202724Y-50369D01*
X202696Y-50305D01*
X202659Y-50203D01*
X202622Y-50092D01*
X202594Y-49953D01*
X202576Y-49815D01*
X202567Y-49658D01*
Y-49648D01*
Y-49630D01*
Y-49593D01*
X202576Y-49537D01*
X202585Y-49473D01*
X202594Y-49408D01*
X202631Y-49241D01*
X202696Y-49047D01*
X202789Y-48844D01*
X202844Y-48742D01*
X202918Y-48640D01*
X202992Y-48539D01*
X203084Y-48446D01*
X203094Y-48437D01*
X203112Y-48428D01*
X203140Y-48400D01*
X203177Y-48363D01*
X203232Y-48326D01*
X203297Y-48289D01*
X203371Y-48243D01*
X203445Y-48187D01*
X203537Y-48141D01*
X203639Y-48095D01*
X203870Y-48021D01*
X204129Y-47956D01*
X204268Y-47947D01*
X204416Y-47938D01*
X204517D01*
X204591Y-47947D01*
X204684Y-47956D01*
X204776Y-47966D01*
X204980Y-48012D01*
X204989D01*
X205017Y-48021D01*
X205063Y-48039D01*
X205118Y-48058D01*
X205192Y-48086D01*
X205276Y-48113D01*
X205377Y-48160D01*
X205479Y-48206D01*
X205488Y-48215D01*
X205525Y-48224D01*
X205581Y-48252D01*
X205645Y-48271D01*
X205784Y-48326D01*
X205849Y-48335D01*
X205904Y-48345D01*
X205923D01*
X205969Y-48335D01*
X206024Y-48317D01*
X206080Y-48280D01*
X206089Y-48261D01*
X206108Y-48243D01*
X206117Y-48206D01*
X206145Y-48160D01*
X206163Y-48104D01*
X206182Y-48030D01*
X206209Y-47938D01*
X206339D01*
X206385Y-49926D01*
D02*
G37*
G36*
X194246Y-50092D02*
X194236D01*
X194209Y-50101D01*
X194172Y-50111D01*
X194125Y-50120D01*
X194024Y-50175D01*
X193968Y-50212D01*
X193913Y-50258D01*
X193904Y-50268D01*
X193885Y-50286D01*
X193857Y-50342D01*
X193811Y-50425D01*
X193783Y-50471D01*
X193756Y-50536D01*
X193719Y-50610D01*
X193682Y-50702D01*
X193635Y-50795D01*
X193589Y-50906D01*
X193543Y-51035D01*
X193487Y-51174D01*
X192313Y-54216D01*
X192304Y-54225D01*
X192295Y-54262D01*
X192267Y-54327D01*
X192239Y-54401D01*
X192202Y-54493D01*
X192165Y-54595D01*
X192064Y-54817D01*
X191953Y-55066D01*
X191842Y-55288D01*
X191796Y-55399D01*
X191740Y-55482D01*
X191694Y-55565D01*
X191648Y-55621D01*
X191638Y-55639D01*
X191592Y-55676D01*
X191527Y-55741D01*
X191444Y-55806D01*
X191333Y-55880D01*
X191204Y-55944D01*
X191056Y-55981D01*
X190889Y-56000D01*
X190834D01*
X190760Y-55991D01*
X190677Y-55972D01*
X190584Y-55944D01*
X190492Y-55908D01*
X190390Y-55861D01*
X190298Y-55787D01*
X190289Y-55778D01*
X190261Y-55750D01*
X190224Y-55704D01*
X190187Y-55639D01*
X190150Y-55565D01*
X190113Y-55482D01*
X190085Y-55390D01*
X190076Y-55279D01*
Y-55270D01*
Y-55233D01*
X190085Y-55186D01*
X190094Y-55131D01*
X190113Y-55066D01*
X190141Y-55002D01*
X190177Y-54928D01*
X190224Y-54863D01*
X190233Y-54854D01*
X190252Y-54835D01*
X190289Y-54807D01*
X190335Y-54780D01*
X190390Y-54752D01*
X190455Y-54724D01*
X190529Y-54706D01*
X190612Y-54696D01*
X190649D01*
X190686Y-54706D01*
X190742Y-54715D01*
X190797Y-54733D01*
X190853Y-54752D01*
X190908Y-54789D01*
X190963Y-54835D01*
X190973Y-54844D01*
X190982Y-54863D01*
X191010Y-54890D01*
X191037Y-54937D01*
X191065Y-55002D01*
X191084Y-55075D01*
X191102Y-55168D01*
X191111Y-55270D01*
Y-55279D01*
Y-55297D01*
X191121Y-55362D01*
X191130Y-55427D01*
X191139Y-55464D01*
X191148Y-55482D01*
X191158Y-55491D01*
X191176Y-55510D01*
X191204Y-55528D01*
X191250Y-55538D01*
X191269D01*
X191315Y-55519D01*
X191389Y-55482D01*
X191426Y-55455D01*
X191472Y-55408D01*
X191481Y-55399D01*
X191500Y-55371D01*
X191537Y-55316D01*
X191583Y-55233D01*
X191638Y-55112D01*
X191675Y-55048D01*
X191712Y-54964D01*
X191749Y-54881D01*
X191786Y-54780D01*
X191823Y-54678D01*
X191870Y-54558D01*
X192008Y-54206D01*
X190686Y-51174D01*
Y-51164D01*
X190677Y-51146D01*
X190658Y-51109D01*
X190640Y-51063D01*
X190584Y-50943D01*
X190520Y-50804D01*
X190446Y-50665D01*
X190372Y-50527D01*
X190298Y-50406D01*
X190270Y-50360D01*
X190242Y-50323D01*
X190233Y-50314D01*
X190215Y-50296D01*
X190187Y-50268D01*
X190150Y-50231D01*
X190094Y-50194D01*
X190039Y-50157D01*
X189974Y-50120D01*
X189900Y-50092D01*
Y-49935D01*
X192091D01*
Y-50092D01*
X192054D01*
X192017Y-50101D01*
X191971Y-50111D01*
X191870Y-50138D01*
X191823Y-50157D01*
X191786Y-50184D01*
X191777Y-50194D01*
X191749Y-50231D01*
X191712Y-50286D01*
X191703Y-50360D01*
Y-50369D01*
Y-50397D01*
X191712Y-50443D01*
X191731Y-50508D01*
X191758Y-50591D01*
X191796Y-50711D01*
X191842Y-50850D01*
X191916Y-51026D01*
X192618Y-52625D01*
X193099Y-51396D01*
Y-51386D01*
X193108Y-51368D01*
X193127Y-51331D01*
X193136Y-51285D01*
X193164Y-51229D01*
X193182Y-51164D01*
X193229Y-51026D01*
X193275Y-50869D01*
X193321Y-50721D01*
X193349Y-50573D01*
X193358Y-50517D01*
Y-50462D01*
Y-50453D01*
Y-50434D01*
X193349Y-50406D01*
Y-50369D01*
X193312Y-50286D01*
X193284Y-50240D01*
X193247Y-50203D01*
X193238Y-50194D01*
X193229Y-50184D01*
X193201Y-50166D01*
X193155Y-50148D01*
X193108Y-50129D01*
X193044Y-50111D01*
X192960Y-50101D01*
X192868Y-50092D01*
Y-49935D01*
X194246D01*
Y-50092D01*
D02*
G37*
G36*
X210407Y-48086D02*
X210509D01*
X210610Y-48095D01*
X210721D01*
X210962Y-48123D01*
X211202Y-48151D01*
X211313Y-48178D01*
X211424Y-48197D01*
X211526Y-48224D01*
X211609Y-48261D01*
X211618D01*
X211627Y-48271D01*
X211683Y-48298D01*
X211757Y-48335D01*
X211849Y-48400D01*
X211960Y-48474D01*
X212071Y-48576D01*
X212182Y-48687D01*
X212284Y-48816D01*
X212293Y-48835D01*
X212321Y-48881D01*
X212367Y-48955D01*
X212413Y-49047D01*
X212450Y-49158D01*
X212496Y-49288D01*
X212524Y-49436D01*
X212533Y-49584D01*
Y-49593D01*
Y-49602D01*
X212524Y-49658D01*
X212515Y-49741D01*
X212496Y-49842D01*
X212450Y-49963D01*
X212395Y-50092D01*
X212321Y-50231D01*
X212210Y-50360D01*
X212191Y-50379D01*
X212145Y-50416D01*
X212071Y-50471D01*
X212016Y-50508D01*
X211951Y-50554D01*
X211886Y-50591D01*
X211803Y-50637D01*
X211710Y-50675D01*
X211609Y-50721D01*
X211498Y-50767D01*
X211378Y-50804D01*
X211248Y-50850D01*
X211100Y-50887D01*
X211110D01*
X211137Y-50896D01*
X211184Y-50906D01*
X211239Y-50924D01*
X211313Y-50943D01*
X211387Y-50970D01*
X211572Y-51026D01*
X211775Y-51091D01*
X211979Y-51174D01*
X212154Y-51266D01*
X212237Y-51312D01*
X212311Y-51368D01*
X212321D01*
X212330Y-51386D01*
X212386Y-51442D01*
X212469Y-51525D01*
X212561Y-51645D01*
X212654Y-51793D01*
X212737Y-51969D01*
X212792Y-52172D01*
X212801Y-52283D01*
X212811Y-52403D01*
Y-52413D01*
Y-52431D01*
Y-52468D01*
X212801Y-52514D01*
X212792Y-52570D01*
X212783Y-52644D01*
X212746Y-52792D01*
X212681Y-52977D01*
X212635Y-53069D01*
X212580Y-53162D01*
X212515Y-53254D01*
X212450Y-53347D01*
X212358Y-53439D01*
X212265Y-53522D01*
X212256Y-53531D01*
X212237Y-53541D01*
X212191Y-53568D01*
X212145Y-53605D01*
X212071Y-53642D01*
X211988Y-53689D01*
X211886Y-53735D01*
X211775Y-53781D01*
X211646Y-53836D01*
X211498Y-53883D01*
X211341Y-53929D01*
X211165Y-53966D01*
X210980Y-54003D01*
X210777Y-54031D01*
X210564Y-54040D01*
X210333Y-54049D01*
X207291D01*
Y-53892D01*
X207430D01*
X207522Y-53883D01*
X207707Y-53864D01*
X207790Y-53846D01*
X207855Y-53818D01*
X207864D01*
X207883Y-53809D01*
X207938Y-53763D01*
X208003Y-53707D01*
X208058Y-53624D01*
Y-53615D01*
X208068Y-53596D01*
X208077Y-53559D01*
X208095Y-53494D01*
X208105Y-53411D01*
X208114Y-53309D01*
X208123Y-53171D01*
Y-53004D01*
Y-49121D01*
Y-49112D01*
Y-49103D01*
Y-49047D01*
Y-48964D01*
X208114Y-48862D01*
X208105Y-48761D01*
X208095Y-48668D01*
X208077Y-48576D01*
X208058Y-48520D01*
Y-48511D01*
X208049Y-48502D01*
X208012Y-48446D01*
X207948Y-48382D01*
X207855Y-48317D01*
X207846D01*
X207827Y-48308D01*
X207790Y-48289D01*
X207726Y-48271D01*
X207652Y-48261D01*
X207559Y-48243D01*
X207439Y-48234D01*
X207291D01*
Y-48077D01*
X210324D01*
X210407Y-48086D01*
D02*
G37*
G36*
X199627D02*
X199728D01*
X199848Y-48104D01*
X199987Y-48113D01*
X200126Y-48132D01*
X200431Y-48187D01*
X200736Y-48271D01*
X200884Y-48326D01*
X201023Y-48382D01*
X201152Y-48456D01*
X201263Y-48539D01*
X201272Y-48548D01*
X201291Y-48557D01*
X201318Y-48585D01*
X201355Y-48622D01*
X201392Y-48668D01*
X201439Y-48714D01*
X201550Y-48853D01*
X201651Y-49020D01*
X201744Y-49214D01*
X201772Y-49325D01*
X201799Y-49436D01*
X201818Y-49556D01*
X201827Y-49685D01*
Y-49694D01*
Y-49713D01*
Y-49741D01*
X201818Y-49778D01*
X201808Y-49889D01*
X201781Y-50027D01*
X201735Y-50175D01*
X201670Y-50342D01*
X201577Y-50508D01*
X201457Y-50675D01*
X201439Y-50693D01*
X201392Y-50739D01*
X201309Y-50813D01*
X201198Y-50896D01*
X201060Y-50998D01*
X200884Y-51091D01*
X200690Y-51174D01*
X200468Y-51238D01*
X200449D01*
X200422Y-51248D01*
X200385Y-51257D01*
X200338Y-51266D01*
X200283D01*
X200209Y-51276D01*
X200126Y-51285D01*
X200033Y-51294D01*
X199932Y-51303D01*
X199811Y-51312D01*
X199682Y-51322D01*
X199534Y-51331D01*
X199377D01*
X199210Y-51340D01*
X199026D01*
Y-53004D01*
Y-53014D01*
Y-53023D01*
Y-53078D01*
Y-53162D01*
X199035Y-53263D01*
Y-53374D01*
X199053Y-53476D01*
X199063Y-53559D01*
X199081Y-53624D01*
Y-53633D01*
X199090Y-53642D01*
X199137Y-53689D01*
X199201Y-53753D01*
X199294Y-53818D01*
X199303D01*
X199321Y-53827D01*
X199368Y-53836D01*
X199423Y-53855D01*
X199497Y-53864D01*
X199599Y-53883D01*
X199719Y-53892D01*
X199858D01*
Y-54049D01*
X196816D01*
Y-53892D01*
X196955D01*
X197047Y-53883D01*
X197232Y-53864D01*
X197315Y-53846D01*
X197380Y-53818D01*
X197389D01*
X197408Y-53809D01*
X197463Y-53763D01*
X197528Y-53707D01*
X197583Y-53624D01*
Y-53615D01*
X197593Y-53596D01*
X197602Y-53559D01*
X197620Y-53494D01*
X197630Y-53411D01*
X197639Y-53309D01*
X197648Y-53171D01*
Y-53004D01*
Y-49121D01*
Y-49112D01*
Y-49103D01*
Y-49047D01*
Y-48964D01*
X197639Y-48862D01*
X197630Y-48761D01*
X197620Y-48668D01*
X197602Y-48576D01*
X197583Y-48520D01*
Y-48511D01*
X197574Y-48502D01*
X197537Y-48446D01*
X197472Y-48382D01*
X197426Y-48345D01*
X197371Y-48317D01*
X197361D01*
X197343Y-48308D01*
X197306Y-48289D01*
X197250Y-48271D01*
X197167Y-48261D01*
X197075Y-48243D01*
X196955Y-48234D01*
X196816D01*
Y-48077D01*
X199534D01*
X199627Y-48086D01*
D02*
G37*
G36*
X186710Y-50360D02*
X186720Y-50351D01*
X186738Y-50332D01*
X186766Y-50314D01*
X186803Y-50277D01*
X186849Y-50231D01*
X186905Y-50184D01*
X187043Y-50083D01*
X187210Y-49990D01*
X187404Y-49898D01*
X187506Y-49861D01*
X187617Y-49842D01*
X187728Y-49824D01*
X187838Y-49815D01*
X187912D01*
X187996Y-49824D01*
X188097Y-49842D01*
X188218Y-49879D01*
X188356Y-49916D01*
X188495Y-49981D01*
X188633Y-50064D01*
X188652Y-50074D01*
X188698Y-50111D01*
X188763Y-50166D01*
X188846Y-50249D01*
X188948Y-50351D01*
X189040Y-50471D01*
X189142Y-50610D01*
X189225Y-50776D01*
Y-50785D01*
X189235Y-50795D01*
X189244Y-50823D01*
X189262Y-50859D01*
X189290Y-50952D01*
X189336Y-51081D01*
X189373Y-51229D01*
X189401Y-51414D01*
X189429Y-51608D01*
X189438Y-51830D01*
Y-51839D01*
Y-51858D01*
Y-51895D01*
Y-51941D01*
X189429Y-51997D01*
X189419Y-52071D01*
X189401Y-52228D01*
X189373Y-52422D01*
X189318Y-52625D01*
X189253Y-52838D01*
X189160Y-53051D01*
Y-53060D01*
X189151Y-53078D01*
X189133Y-53106D01*
X189114Y-53143D01*
X189050Y-53236D01*
X188966Y-53356D01*
X188865Y-53494D01*
X188745Y-53633D01*
X188596Y-53763D01*
X188439Y-53883D01*
X188430D01*
X188421Y-53892D01*
X188393Y-53910D01*
X188365Y-53929D01*
X188273Y-53975D01*
X188144Y-54021D01*
X187996Y-54077D01*
X187820Y-54123D01*
X187635Y-54160D01*
X187422Y-54169D01*
X187367D01*
X187302Y-54160D01*
X187228D01*
X187136Y-54142D01*
X187034Y-54123D01*
X186932Y-54105D01*
X186831Y-54068D01*
X186821Y-54058D01*
X186784Y-54049D01*
X186738Y-54021D01*
X186674Y-53984D01*
X186590Y-53938D01*
X186507Y-53883D01*
X186415Y-53809D01*
X186322Y-53726D01*
X185638Y-54169D01*
X185490D01*
Y-48927D01*
Y-48909D01*
Y-48872D01*
Y-48807D01*
Y-48742D01*
X185481Y-48668D01*
X185471Y-48594D01*
X185462Y-48539D01*
X185453Y-48493D01*
Y-48483D01*
X185444Y-48474D01*
X185416Y-48419D01*
X185379Y-48363D01*
X185314Y-48308D01*
X185296Y-48298D01*
X185277Y-48289D01*
X185240Y-48271D01*
X185194Y-48261D01*
X185139Y-48252D01*
X185074Y-48243D01*
X185000Y-48234D01*
Y-48077D01*
X186710D01*
Y-50360D01*
D02*
G37*
%LPC*%
G36*
X200531Y51422D02*
X200522D01*
X200503Y51404D01*
X200476Y51395D01*
X200439Y51367D01*
X200346Y51302D01*
X200226Y51219D01*
X200097Y51126D01*
X199958Y51006D01*
X199838Y50886D01*
X199727Y50757D01*
X199718Y50747D01*
X199699Y50720D01*
X199671Y50664D01*
X199643Y50609D01*
X199616Y50535D01*
X199588Y50452D01*
X199570Y50368D01*
X199560Y50276D01*
Y50267D01*
Y50239D01*
X199570Y50202D01*
X199579Y50156D01*
X199597Y50100D01*
X199616Y50036D01*
X199653Y49980D01*
X199699Y49915D01*
X199708D01*
X199718Y49897D01*
X199745Y49878D01*
X199782Y49860D01*
X199828Y49841D01*
X199875Y49823D01*
X199939Y49814D01*
X200013Y49804D01*
X200050D01*
X200097Y49814D01*
X200161Y49832D01*
X200235Y49869D01*
X200328Y49906D01*
X200420Y49971D01*
X200531Y50054D01*
Y51422D01*
D02*
G37*
G36*
X224385Y53068D02*
X224348D01*
X224302Y53059D01*
X224255Y53040D01*
X224191Y53013D01*
X224126Y52966D01*
X224061Y52911D01*
X224006Y52837D01*
X223997Y52818D01*
X223969Y52763D01*
X223923Y52680D01*
X223885Y52560D01*
X223839Y52402D01*
X223793Y52217D01*
X223765Y52005D01*
X223756Y51764D01*
Y51617D01*
X224949D01*
Y51626D01*
Y51644D01*
Y51681D01*
Y51727D01*
Y51792D01*
Y51857D01*
X224939Y52005D01*
X224930Y52162D01*
X224912Y52319D01*
X224893Y52467D01*
X224884Y52523D01*
X224865Y52578D01*
Y52587D01*
X224856Y52624D01*
X224838Y52670D01*
X224810Y52726D01*
X224736Y52865D01*
X224681Y52929D01*
X224625Y52985D01*
X224607Y52994D01*
X224560Y53031D01*
X224487Y53059D01*
X224385Y53068D01*
D02*
G37*
G36*
X220381D02*
X220344D01*
X220298Y53059D01*
X220252Y53040D01*
X220187Y53013D01*
X220123Y52966D01*
X220058Y52911D01*
X220002Y52837D01*
X219993Y52818D01*
X219965Y52763D01*
X219919Y52680D01*
X219882Y52560D01*
X219836Y52402D01*
X219790Y52217D01*
X219762Y52005D01*
X219753Y51764D01*
Y51617D01*
X220945D01*
Y51626D01*
Y51644D01*
Y51681D01*
Y51727D01*
Y51792D01*
Y51857D01*
X220936Y52005D01*
X220927Y52162D01*
X220908Y52319D01*
X220890Y52467D01*
X220881Y52523D01*
X220862Y52578D01*
Y52587D01*
X220853Y52624D01*
X220835Y52670D01*
X220807Y52726D01*
X220733Y52865D01*
X220677Y52929D01*
X220622Y52985D01*
X220603Y52994D01*
X220557Y53031D01*
X220483Y53059D01*
X220381Y53068D01*
D02*
G37*
G36*
X209501Y-48409D02*
Y-50767D01*
X209603D01*
X209713Y-50758D01*
X209852Y-50749D01*
X210000Y-50730D01*
X210157Y-50711D01*
X210305Y-50675D01*
X210425Y-50628D01*
X210435Y-50619D01*
X210472Y-50601D01*
X210527Y-50573D01*
X210601Y-50527D01*
X210675Y-50471D01*
X210749Y-50406D01*
X210823Y-50332D01*
X210888Y-50240D01*
X210897Y-50231D01*
X210915Y-50194D01*
X210943Y-50138D01*
X210971Y-50064D01*
X210999Y-49963D01*
X211026Y-49852D01*
X211045Y-49722D01*
X211054Y-49584D01*
Y-49574D01*
Y-49565D01*
Y-49519D01*
X211045Y-49445D01*
X211036Y-49352D01*
X211017Y-49251D01*
X210980Y-49140D01*
X210943Y-49038D01*
X210888Y-48936D01*
X210878Y-48927D01*
X210860Y-48890D01*
X210823Y-48844D01*
X210777Y-48788D01*
X210712Y-48724D01*
X210629Y-48659D01*
X210536Y-48604D01*
X210435Y-48548D01*
X210425Y-48539D01*
X210379Y-48530D01*
X210315Y-48502D01*
X210213Y-48474D01*
X210083Y-48456D01*
X209917Y-48428D01*
X209723Y-48419D01*
X209501Y-48409D01*
D02*
G37*
G36*
Y-51109D02*
Y-53023D01*
Y-53245D01*
Y-53254D01*
Y-53282D01*
X209510Y-53328D01*
X209519Y-53374D01*
X209556Y-53494D01*
X209584Y-53550D01*
X209621Y-53596D01*
X209630Y-53605D01*
X209639Y-53615D01*
X209667Y-53633D01*
X209713Y-53652D01*
X209760Y-53679D01*
X209824Y-53698D01*
X209889Y-53707D01*
X209972Y-53716D01*
X210028D01*
X210102Y-53707D01*
X210185Y-53698D01*
X210287Y-53679D01*
X210388Y-53652D01*
X210499Y-53615D01*
X210610Y-53568D01*
X210620Y-53559D01*
X210657Y-53541D01*
X210712Y-53504D01*
X210777Y-53448D01*
X210851Y-53393D01*
X210925Y-53309D01*
X210999Y-53217D01*
X211063Y-53115D01*
X211073Y-53106D01*
X211091Y-53060D01*
X211110Y-53004D01*
X211147Y-52921D01*
X211174Y-52819D01*
X211193Y-52709D01*
X211211Y-52588D01*
X211220Y-52450D01*
Y-52440D01*
Y-52431D01*
Y-52376D01*
X211211Y-52302D01*
X211202Y-52200D01*
X211174Y-52080D01*
X211147Y-51960D01*
X211100Y-51830D01*
X211036Y-51701D01*
X211026Y-51682D01*
X210999Y-51645D01*
X210962Y-51590D01*
X210906Y-51516D01*
X210832Y-51442D01*
X210740Y-51368D01*
X210638Y-51294D01*
X210518Y-51238D01*
X210499Y-51229D01*
X210453Y-51220D01*
X210379Y-51202D01*
X210268Y-51174D01*
X210120Y-51146D01*
X209945Y-51128D01*
X209741Y-51118D01*
X209501Y-51109D01*
D02*
G37*
G36*
X199201Y-48419D02*
X199026D01*
Y-50998D01*
X199109D01*
X199174Y-51007D01*
X199303D01*
X199340Y-50998D01*
X199432Y-50989D01*
X199553Y-50970D01*
X199682Y-50933D01*
X199821Y-50878D01*
X199950Y-50795D01*
X200070Y-50693D01*
X200080Y-50675D01*
X200117Y-50628D01*
X200163Y-50554D01*
X200218Y-50443D01*
X200274Y-50305D01*
X200320Y-50138D01*
X200357Y-49935D01*
X200366Y-49704D01*
Y-49694D01*
Y-49676D01*
Y-49639D01*
Y-49593D01*
X200357Y-49537D01*
X200348Y-49473D01*
X200329Y-49334D01*
X200292Y-49177D01*
X200246Y-49010D01*
X200172Y-48862D01*
X200070Y-48733D01*
X200061Y-48724D01*
X200015Y-48687D01*
X199950Y-48631D01*
X199858Y-48576D01*
X199728Y-48520D01*
X199580Y-48465D01*
X199405Y-48428D01*
X199201Y-48419D01*
D02*
G37*
G36*
X187432Y-50314D02*
X187413D01*
X187367Y-50323D01*
X187293Y-50332D01*
X187201Y-50369D01*
X187090Y-50416D01*
X186969Y-50499D01*
X186840Y-50601D01*
X186775Y-50675D01*
X186710Y-50749D01*
Y-52579D01*
Y-52588D01*
Y-52607D01*
Y-52635D01*
Y-52672D01*
Y-52764D01*
Y-52875D01*
X186720Y-52995D01*
Y-53115D01*
Y-53217D01*
X186729Y-53254D01*
Y-53291D01*
Y-53300D01*
X186738Y-53337D01*
X186757Y-53383D01*
X186775Y-53439D01*
X186803Y-53504D01*
X186840Y-53578D01*
X186886Y-53642D01*
X186942Y-53707D01*
X186951Y-53716D01*
X186969Y-53735D01*
X187006Y-53753D01*
X187062Y-53781D01*
X187117Y-53818D01*
X187191Y-53836D01*
X187274Y-53855D01*
X187367Y-53864D01*
X187404D01*
X187450Y-53855D01*
X187506Y-53846D01*
X187626Y-53809D01*
X187691Y-53781D01*
X187755Y-53744D01*
X187764Y-53735D01*
X187783Y-53716D01*
X187811Y-53679D01*
X187848Y-53633D01*
X187894Y-53559D01*
X187931Y-53476D01*
X187977Y-53365D01*
X188023Y-53236D01*
Y-53226D01*
X188033Y-53217D01*
Y-53189D01*
X188042Y-53162D01*
X188051Y-53115D01*
X188060Y-53060D01*
X188070Y-52995D01*
X188079Y-52921D01*
X188088Y-52838D01*
X188097Y-52736D01*
X188106Y-52625D01*
X188116Y-52496D01*
X188125Y-52357D01*
X188134Y-52209D01*
Y-52043D01*
Y-51867D01*
Y-51858D01*
Y-51830D01*
Y-51775D01*
Y-51710D01*
X188125Y-51636D01*
Y-51553D01*
X188106Y-51350D01*
X188079Y-51137D01*
X188033Y-50924D01*
X188005Y-50823D01*
X187977Y-50730D01*
X187940Y-50647D01*
X187894Y-50573D01*
X187885Y-50564D01*
X187866Y-50536D01*
X187820Y-50490D01*
X187774Y-50443D01*
X187700Y-50397D01*
X187626Y-50351D01*
X187533Y-50323D01*
X187432Y-50314D01*
D02*
G37*
%LPD*%
G54D10*
X25340Y105000D02*
X42660Y115000D01*
X34000Y100000D02*
Y120000D01*
X25340Y115000D02*
X42660Y105000D01*
X-113660Y42000D02*
X-96340Y52000D01*
X-105000Y37000D02*
Y57000D01*
X-113660Y52000D02*
X-96340Y42000D01*
G54D12*
X-20000Y-1000D02*
Y19000D01*
X-28660Y4000D02*
X-11340Y14000D01*
X-28660Y14000D02*
X-11340Y4000D01*
X109765Y-29155D02*
X113000Y-34041D01*
X116235Y-29155D01*
X113000Y-50000D02*
Y-30000D01*
X-106660Y-48000D02*
X-89340Y-58000D01*
X-106660Y-58000D02*
X-89340Y-48000D01*
X-98000Y-63000D02*
Y-43000D01*
X59340Y-20000D02*
X76660Y-30000D01*
X59340Y-30000D02*
X76660Y-20000D01*
X68000Y-35000D02*
Y-15000D01*
X-77660Y28000D02*
X-60340Y18000D01*
X-77660Y18000D02*
X-60340Y28000D01*
X-69000Y13000D02*
Y33000D01*
X-43660Y114000D02*
X-26340Y104000D01*
X-43660Y104000D02*
X-26340Y114000D01*
X-35000Y99000D02*
Y119000D01*
X28340Y-103000D02*
X45660Y-113000D01*
X28340Y-113000D02*
X45660Y-103000D01*
X37000Y-118000D02*
Y-98000D01*
X-59660Y-106000D02*
X-42340Y-96000D01*
X-51000Y-111000D02*
Y-91000D01*
X-59660Y-96000D02*
X-42340Y-106000D01*
X104340Y-45000D02*
X121660Y-35000D01*
X101991Y-42621D02*
X107839Y-42979D01*
X105226Y-48224D02*
X107839Y-42979D01*
X118161Y-37020D02*
X120774Y-31776D01*
X118161Y-37020D02*
X124009Y-37379D01*
X109765Y-50844D02*
X113000Y-45959D01*
X116235Y-50844D01*
X118161Y-42980D02*
X120774Y-48224D01*
X118161Y-42980D02*
X124009Y-42621D01*
X101991Y-37379D02*
X107839Y-37020D01*
X105226Y-31776D02*
X107839Y-37020D01*
X104340Y-35000D02*
X121660Y-45000D01*
X-116009Y44379D02*
X-110161Y44021D01*
X-112774Y38776D02*
X-110161Y44021D01*
X-99839Y49980D02*
X-97226Y55224D01*
X-99839Y49980D02*
X-93991Y49621D01*
X-108235Y36156D02*
X-105000Y41041D01*
X-101765Y36156D01*
X-108235Y57845D02*
X-105000Y52959D01*
X-101765Y57845D01*
X-99839Y44020D02*
X-97226Y38776D01*
X-99839Y44020D02*
X-93991Y44379D01*
X-116009Y49621D02*
X-110161Y49980D01*
X-112774Y55224D02*
X-110161Y49980D01*
G54D13*
X-585802Y-469392D02*
X-575645D01*
X-580723D01*
Y-484627D01*
X-568028D02*
X-562949D01*
X-560410Y-482088D01*
Y-477010D01*
X-562949Y-474470D01*
X-568028D01*
X-570567Y-477010D01*
Y-482088D01*
X-568028Y-484627D01*
X-555332Y-489706D02*
Y-474470D01*
X-547714D01*
X-545175Y-477010D01*
Y-482088D01*
X-547714Y-484627D01*
X-555332D01*
X-514705Y-471931D02*
X-517244Y-469392D01*
X-522322D01*
X-524862Y-471931D01*
Y-474470D01*
X-522322Y-477010D01*
X-517244D01*
X-514705Y-479549D01*
Y-482088D01*
X-517244Y-484627D01*
X-522322D01*
X-524862Y-482088D01*
X-507087Y-484627D02*
X-502009D01*
X-499470Y-482088D01*
Y-477010D01*
X-502009Y-474470D01*
X-507087D01*
X-509627Y-477010D01*
Y-482088D01*
X-507087Y-484627D01*
X-494391D02*
X-489313D01*
X-491852D01*
Y-469392D01*
X-494391D01*
X-471539D02*
Y-484627D01*
X-479156D01*
X-481696Y-482088D01*
Y-477010D01*
X-479156Y-474470D01*
X-471539D01*
X-458843Y-484627D02*
X-463921D01*
X-466460Y-482088D01*
Y-477010D01*
X-463921Y-474470D01*
X-458843D01*
X-456304Y-477010D01*
Y-479549D01*
X-466460D01*
X-451225Y-474470D02*
Y-484627D01*
Y-479549D01*
X-448686Y-477010D01*
X-446147Y-474470D01*
X-443608D01*
X-585802Y-469392D02*
X-575645D01*
X-580723D01*
Y-484627D01*
X-568028D02*
X-562949D01*
X-560410Y-482088D01*
Y-477010D01*
X-562949Y-474470D01*
X-568028D01*
X-570567Y-477010D01*
Y-482088D01*
X-568028Y-484627D01*
X-555332Y-489706D02*
Y-474470D01*
X-547714D01*
X-545175Y-477010D01*
Y-482088D01*
X-547714Y-484627D01*
X-555332D01*
X-514705Y-471931D02*
X-517244Y-469392D01*
X-522322D01*
X-524862Y-471931D01*
Y-474470D01*
X-522322Y-477010D01*
X-517244D01*
X-514705Y-479549D01*
Y-482088D01*
X-517244Y-484627D01*
X-522322D01*
X-524862Y-482088D01*
X-507087Y-484627D02*
X-502009D01*
X-499470Y-482088D01*
Y-477010D01*
X-502009Y-474470D01*
X-507087D01*
X-509627Y-477010D01*
Y-482088D01*
X-507087Y-484627D01*
X-494391D02*
X-489313D01*
X-491852D01*
Y-469392D01*
X-494391D01*
X-471539D02*
Y-484627D01*
X-479156D01*
X-481696Y-482088D01*
Y-477010D01*
X-479156Y-474470D01*
X-471539D01*
X-458843Y-484627D02*
X-463921D01*
X-466460Y-482088D01*
Y-477010D01*
X-463921Y-474470D01*
X-458843D01*
X-456304Y-477010D01*
Y-479549D01*
X-466460D01*
X-451225Y-474470D02*
Y-484627D01*
Y-479549D01*
X-448686Y-477010D01*
X-446147Y-474470D01*
X-443608D01*
G54D14*
X-25330Y9768D02*
X-22645Y10527D01*
X-23330Y13232D02*
X-22645Y10527D01*
X-25769Y15795D02*
X-25012Y11894D01*
X-28769Y10598D02*
X-25012Y11894D01*
X-14988Y6106D02*
X-11231Y7402D01*
X-14988Y6106D02*
X-14231Y2205D01*
X-17355Y7473D02*
X-16670Y4768D01*
X-17355Y7473D02*
X-14670Y8232D01*
X-22000Y14000D02*
X-20000Y12055D01*
X-18000Y14000D01*
X-20000Y14787D02*
X-17000Y17393D01*
X-23000D02*
X-20000Y14787D01*
Y3212D02*
X-17000Y607D01*
X-23000D02*
X-20000Y3212D01*
X-22000Y4000D02*
X-20000Y5946D01*
X-18000Y4000D01*
X-17355Y10527D02*
X-16670Y13232D01*
X-17355Y10527D02*
X-14670Y9768D01*
X-14988Y11894D02*
X-11231Y10598D01*
X-14988Y11894D02*
X-14231Y15795D01*
X-25769Y2205D02*
X-25012Y6106D01*
X-28769Y7402D02*
X-25012Y6106D01*
X-25330Y8232D02*
X-22645Y7473D01*
X-23330Y4768D02*
X-22645Y7473D01*
X-101330Y-57232D02*
X-100645Y-54527D01*
X-103330Y-53768D02*
X-100645Y-54527D01*
X-106769Y-54598D02*
X-103012Y-55894D01*
X-103769Y-59795D02*
X-103012Y-55894D01*
X-92988Y-50106D02*
X-92231Y-46205D01*
X-92988Y-50106D02*
X-89231Y-51402D01*
X-95355Y-51473D02*
X-92670Y-52232D01*
X-95355Y-51473D02*
X-94670Y-48768D01*
X-98000Y-56055D02*
X-96000Y-58000D01*
X-100000D02*
X-98000Y-56055D01*
X-101000Y-61393D02*
X-98000Y-58787D01*
X-95000Y-61393D01*
X-101000Y-44607D02*
X-98000Y-47213D01*
X-95000Y-44607D01*
X-98000Y-49946D02*
X-96000Y-48000D01*
X-100000D02*
X-98000Y-49946D01*
X-95355Y-54527D02*
X-92670Y-53768D01*
X-95355Y-54527D02*
X-94670Y-57232D01*
X-92988Y-55894D02*
X-92231Y-59795D01*
X-92988Y-55894D02*
X-89231Y-54598D01*
X-106769Y-51402D02*
X-103012Y-50106D01*
X-103769Y-46205D02*
X-103012Y-50106D01*
X-101330Y-48768D02*
X-100645Y-51473D01*
X-103330Y-52232D02*
X-100645Y-51473D01*
X64670Y-29232D02*
X65355Y-26527D01*
X62670Y-25768D02*
X65355Y-26527D01*
X59231Y-26598D02*
X62988Y-27894D01*
X62231Y-31795D02*
X62988Y-27894D01*
X73012Y-22106D02*
X73769Y-18205D01*
X73012Y-22106D02*
X76769Y-23402D01*
X70645Y-23473D02*
X73330Y-24232D01*
X70645Y-23473D02*
X71330Y-20768D01*
X68000Y-28054D02*
X70000Y-30000D01*
X66000D02*
X68000Y-28054D01*
X65000Y-33393D02*
X68000Y-30787D01*
X71000Y-33393D01*
X65000Y-16607D02*
X68000Y-19212D01*
X71000Y-16607D01*
X68000Y-21946D02*
X70000Y-20000D01*
X66000D02*
X68000Y-21946D01*
X70645Y-26527D02*
X73330Y-25768D01*
X70645Y-26527D02*
X71330Y-29232D01*
X73012Y-27894D02*
X73769Y-31795D01*
X73012Y-27894D02*
X76769Y-26598D01*
X59231Y-23402D02*
X62988Y-22106D01*
X62231Y-18205D02*
X62988Y-22106D01*
X64670Y-20768D02*
X65355Y-23473D01*
X62670Y-24232D02*
X65355Y-23473D01*
X-72330Y18768D02*
X-71645Y21473D01*
X-74330Y22232D02*
X-71645Y21473D01*
X-77769Y21402D02*
X-74012Y20106D01*
X-74769Y16205D02*
X-74012Y20106D01*
X-63988Y25894D02*
X-63231Y29795D01*
X-63988Y25894D02*
X-60231Y24599D01*
X-66355Y24527D02*
X-63670Y23768D01*
X-66355Y24527D02*
X-65670Y27232D01*
X-69000Y19945D02*
X-67000Y18000D01*
X-71000D02*
X-69000Y19945D01*
X-72000Y14607D02*
X-69000Y17213D01*
X-66000Y14607D01*
X-72000Y31393D02*
X-69000Y28788D01*
X-66000Y31393D01*
X-69000Y26054D02*
X-67000Y28000D01*
X-71000D02*
X-69000Y26054D01*
X-66355Y21473D02*
X-63670Y22232D01*
X-66355Y21473D02*
X-65670Y18768D01*
X-63988Y20106D02*
X-63231Y16205D01*
X-63988Y20106D02*
X-60231Y21402D01*
X-77769Y24599D02*
X-74012Y25894D01*
X-74769Y29795D02*
X-74012Y25894D01*
X-72330Y27232D02*
X-71645Y24527D01*
X-74330Y23768D02*
X-71645Y24527D01*
X-45392Y103000D02*
X-42813Y104489D01*
X-38330Y104768D02*
X-37645Y107473D01*
X-40330Y108232D02*
X-37645Y107473D01*
X-43769Y107402D02*
X-40012Y106106D01*
X-40769Y102205D02*
X-40012Y106106D01*
X-44034Y99875D02*
X-42794Y104500D01*
X-47369Y105726D02*
X-42794Y104500D01*
X-27206Y113500D02*
X-22631Y112274D01*
X-27206Y113500D02*
X-25966Y118125D01*
X-29988Y111894D02*
X-29231Y115795D01*
X-29988Y111894D02*
X-26231Y110598D01*
X-32355Y110527D02*
X-29670Y109768D01*
X-32355Y110527D02*
X-31670Y113232D01*
X-27187Y113511D02*
X-24608Y115000D01*
X-35000Y97000D02*
Y99978D01*
Y105946D02*
X-33000Y104000D01*
X-37000D02*
X-35000Y105946D01*
X-38000Y100607D02*
X-35000Y103212D01*
X-32000Y100607D01*
X-35000Y100000D02*
X-31614Y96614D01*
X-38349Y96651D02*
X-35000Y100000D01*
Y118000D02*
X-31651Y121349D01*
X-38386Y121386D02*
X-35000Y118000D01*
X-38000Y117393D02*
X-35000Y114788D01*
X-32000Y117393D01*
X-35000Y112055D02*
X-33000Y114000D01*
X-37000D02*
X-35000Y112055D01*
Y118022D02*
Y121000D01*
X-27187Y104489D02*
X-24608Y103000D01*
X-32355Y107473D02*
X-29670Y108232D01*
X-32355Y107473D02*
X-31670Y104768D01*
X-29988Y106106D02*
X-29231Y102205D01*
X-29988Y106106D02*
X-26231Y107402D01*
X-27206Y104500D02*
X-22580Y105739D01*
X-27206Y104500D02*
X-25980Y99925D01*
X-44020Y118075D02*
X-42794Y113500D01*
X-47420Y112261D02*
X-42794Y113500D01*
X-43769Y110598D02*
X-40012Y111894D01*
X-40769Y115795D02*
X-40012Y111894D01*
X-38330Y113232D02*
X-37645Y110527D01*
X-40330Y109768D02*
X-37645Y110527D01*
X-45392Y115000D02*
X-42813Y113511D01*
X26608Y-114000D02*
X29187Y-112511D01*
X33670Y-112232D02*
X34355Y-109527D01*
X31670Y-108768D02*
X34355Y-109527D01*
X28231Y-109599D02*
X31988Y-110894D01*
X31231Y-114795D02*
X31988Y-110894D01*
X27966Y-117125D02*
X29206Y-112500D01*
X24631Y-111274D02*
X29206Y-112500D01*
X44794Y-103500D02*
X49369Y-104726D01*
X44794Y-103500D02*
X46034Y-98875D01*
X42012Y-105106D02*
X42769Y-101205D01*
X42012Y-105106D02*
X45769Y-106402D01*
X39645Y-106473D02*
X42330Y-107232D01*
X39645Y-106473D02*
X40330Y-103768D01*
X44813Y-103489D02*
X47392Y-102000D01*
X37000Y-120000D02*
Y-117022D01*
Y-111054D02*
X39000Y-113000D01*
X35000D02*
X37000Y-111054D01*
X34000Y-116393D02*
X37000Y-113788D01*
X40000Y-116393D01*
X37000Y-117000D02*
X40386Y-120386D01*
X33651Y-120349D02*
X37000Y-117000D01*
Y-99000D02*
X40349Y-95651D01*
X33614Y-95614D02*
X37000Y-99000D01*
X34000Y-99607D02*
X37000Y-102212D01*
X40000Y-99607D01*
X37000Y-104945D02*
X39000Y-103000D01*
X35000D02*
X37000Y-104945D01*
Y-98978D02*
Y-96000D01*
X44813Y-112511D02*
X47392Y-114000D01*
X39645Y-109527D02*
X42330Y-108768D01*
X39645Y-109527D02*
X40330Y-112232D01*
X42012Y-110894D02*
X42769Y-114795D01*
X42012Y-110894D02*
X45769Y-109599D01*
X44794Y-112500D02*
X49420Y-111261D01*
X44794Y-112500D02*
X46020Y-117075D01*
X27980Y-98925D02*
X29206Y-103500D01*
X24580Y-104739D02*
X29206Y-103500D01*
X28231Y-106402D02*
X31988Y-105106D01*
X31231Y-101205D02*
X31988Y-105106D01*
X33670Y-103768D02*
X34355Y-106473D01*
X31670Y-107232D02*
X34355Y-106473D01*
X26608Y-102000D02*
X29187Y-103489D01*
G54D15*
X214952Y-10160D02*
D03*
X214952Y10000D02*
D03*
G54D16*
X220000Y-35052D02*
D03*
Y35000D02*
D03*
G54D17*
X24247Y-29485D02*
D03*
X379Y-38173D02*
D03*
X110000Y12700D02*
D03*
Y-12700D02*
D03*
X86980Y69020D02*
D03*
X69020Y86980D02*
D03*
X-12700Y110000D02*
D03*
X12700D02*
D03*
X-69020Y86980D02*
D03*
X-86980Y69020D02*
D03*
X-110000Y-12700D02*
D03*
Y12700D02*
D03*
X-86980Y-69020D02*
D03*
X-69020Y-86980D02*
D03*
X12700Y-110000D02*
D03*
X-12700D02*
D03*
X69020Y-86980D02*
D03*
X86980Y-69020D02*
D03*
X74685Y24860D02*
D03*
X68111Y326D02*
D03*
X37459Y68338D02*
D03*
X12059D02*
D03*
X-52989Y44750D02*
D03*
X-40289Y66747D02*
D03*
X-74685Y-24860D02*
D03*
X-68111Y-325D02*
D03*
X-34048Y-59676D02*
D03*
X-15471Y-76999D02*
D03*
X40289Y-66747D02*
D03*
X52989Y-44750D02*
D03*
X29485Y24248D02*
D03*
X38172Y380D02*
D03*
X-379Y38173D02*
D03*
X-24247Y29485D02*
D03*
X-38172Y-380D02*
D03*
X-29485Y-24248D02*
D03*
X5367Y11510D02*
D03*
X-5367Y-11510D02*
D03*
X-4883Y69829D02*
D03*
X6000Y-69000D02*
D03*
X-55000Y-42000D02*
D03*
X56000Y40000D02*
D03*
X54000Y-93000D02*
D03*
X-29000Y-105000D02*
D03*
X-102000Y-35000D02*
D03*
X-54659Y96609D02*
D03*
X104007Y35812D02*
D03*
X49000Y96000D02*
D03*
G54D18*
X43473Y-22738D02*
D03*
X45279Y-18864D02*
D03*
X46741Y-14847D02*
D03*
X47848Y-10718D02*
D03*
X52103Y-27811D02*
D03*
X53876Y-24094D02*
D03*
X55385Y-20263D02*
D03*
X56624Y-16335D02*
D03*
X57585Y-12331D02*
D03*
X-57576Y12218D02*
D03*
X-56614Y16223D02*
D03*
X-55376Y20150D02*
D03*
X-53867Y23982D02*
D03*
X-52094Y27699D02*
D03*
X-47838Y10605D02*
D03*
X-46732Y14735D02*
D03*
X-45270Y18751D02*
D03*
X-43463Y22626D02*
D03*
X-80345Y-36445D02*
D03*
X-78614Y-40114D02*
D03*
X-76725Y-43705D02*
D03*
X-74681Y-47210D02*
D03*
X-89894Y-39560D02*
D03*
X-88082Y-42960D02*
D03*
X-86351Y-46630D02*
D03*
X-84462Y-50221D02*
D03*
X-82417Y-53726D02*
D03*
X-41733Y89093D02*
D03*
X-37978Y90629D02*
D03*
X-34159Y92000D02*
D03*
X-30284Y93203D02*
D03*
X-26664Y94525D02*
D03*
X-24908Y84635D02*
D03*
X-28783Y83432D02*
D03*
X-32602Y82061D02*
D03*
X-36357Y80524D02*
D03*
X89549Y-40333D02*
D03*
X93837Y-29163D02*
D03*
X92433Y-32970D02*
D03*
X95074Y-25298D02*
D03*
X90864Y-36711D02*
D03*
X80845Y-35322D02*
D03*
X85055Y-23909D02*
D03*
X82414Y-31580D02*
D03*
X83818Y-27773D02*
D03*
M02*
