G04*
G04 #@! TF.GenerationSoftware,Altium Limited,Altium Designer,20.2.4 (192)*
G04*
G04 Layer_Color=32896*
%FSLAX44Y44*%
%MOMM*%
G71*
G04*
G04 #@! TF.SameCoordinates,0F43FF0A-D758-409E-903F-A1448CC310CE*
G04*
G04*
G04 #@! TF.FilePolarity,Positive*
G04*
G01*
G75*
%ADD12C,0.1500*%
%ADD13C,0.2032*%
%ADD53C,0.2540*%
G54D12*
X16750Y-20750D02*
X29250D01*
X16750D02*
Y2750D01*
X29250D01*
Y-20750D02*
Y2750D01*
X117000Y-6250D02*
X123750D01*
X100250Y-6250D02*
X104000D01*
X117875Y6250D02*
X123750D01*
X100250Y6250D02*
X103000D01*
X100250Y-6250D02*
X100250Y6250D01*
X123750Y-6250D02*
X123750Y6250D01*
X43904Y104108D02*
X48179Y115854D01*
X21821Y112146D02*
X43904Y104108D01*
X21821Y112146D02*
X26096Y123892D01*
X48179Y115854D01*
X-32751Y97273D02*
X-21005Y101549D01*
X-40788Y119356D02*
X-32751Y97273D01*
X-40788Y119356D02*
X-29042Y123631D01*
X-21005Y101549D01*
X-91949Y45712D02*
X-85699Y56538D01*
X-112301Y57462D02*
X-91949Y45712D01*
X-112301Y57462D02*
X-106051Y68288D01*
X-85699Y56538D01*
X-93949Y-44712D02*
X-87699Y-55538D01*
X-108051Y-67288D02*
X-87699Y-55538D01*
X-114301Y-56462D02*
X-108051Y-67288D01*
X-114301Y-56462D02*
X-93949Y-44712D01*
X-51663Y-89613D02*
X-40476Y-95190D01*
X-50962Y-116221D02*
X-40476Y-95190D01*
X-62149Y-110644D02*
X-50962Y-116221D01*
X-62149Y-110644D02*
X-51663Y-89613D01*
X23626Y-98653D02*
X35579Y-94998D01*
X42450Y-117471D01*
X30496Y-121126D02*
X42450Y-117471D01*
X23626Y-98653D02*
X30496Y-121126D01*
X85426Y-56538D02*
X91676Y-45712D01*
X112028Y-57462D01*
X105778Y-68288D02*
X112028Y-57462D01*
X85426Y-56538D02*
X105778Y-68288D01*
X36327Y50735D02*
X45219Y41950D01*
X36327Y50735D02*
X52842Y67453D01*
X61735Y58668D01*
X45219Y41950D02*
X61735Y58668D01*
X80732Y-25078D02*
X83967Y-13004D01*
X58033Y-18996D02*
X80732Y-25078D01*
X58033Y-18996D02*
X61268Y-6922D01*
X83967Y-13004D01*
X3750Y-20750D02*
X16250D01*
X3750D02*
Y2750D01*
X16250D01*
Y-20750D02*
Y2750D01*
X-57945Y23007D02*
X-51722Y33847D01*
X-78325Y34707D02*
X-57945Y23007D01*
X-78325Y34707D02*
X-72102Y45547D01*
X-51722Y33847D01*
X-84796Y12568D02*
X-71024Y8908D01*
X-62085Y6532D02*
X-58874Y18613D01*
X-84796Y12568D02*
X-81586Y24649D01*
X-58874Y18613D01*
X-45764Y-43112D02*
X-44900Y-42126D01*
X-60318Y-59861D02*
X-53000Y-51000D01*
X-50884Y-68062D02*
X-43499Y-59566D01*
X-44900Y-42126D02*
X-35467Y-50326D01*
X-60318Y-59861D02*
X-50884Y-68062D01*
X60290Y-39498D02*
X72051Y-46288D01*
X51699Y-34538D02*
X53308Y-35466D01*
X51699Y-34538D02*
X57949Y-23712D01*
X78301Y-35462D01*
X72051Y-46288D02*
X78301Y-35462D01*
X-7250Y-2045D02*
Y8250D01*
X-29000Y-4250D02*
X-12000D01*
X-30750Y5125D02*
Y8250D01*
X-7250D01*
X12250Y4750D02*
Y6000D01*
X35750Y9000D02*
Y17250D01*
X12250Y4750D02*
X29496D01*
X12250Y17250D02*
X23000D01*
X-30617Y8349D02*
Y20849D01*
X-7117D01*
Y8349D02*
Y20849D01*
X-30617Y8349D02*
X-7117D01*
G54D13*
X-585802Y-469392D02*
Y-484627D01*
X-578184D01*
X-575645Y-482088D01*
Y-479549D01*
X-578184Y-477010D01*
X-585802D01*
X-578184D01*
X-575645Y-474470D01*
Y-471931D01*
X-578184Y-469392D01*
X-585802D01*
X-568028Y-484627D02*
X-562949D01*
X-560410Y-482088D01*
Y-477010D01*
X-562949Y-474470D01*
X-568028D01*
X-570567Y-477010D01*
Y-482088D01*
X-568028Y-484627D01*
X-552793Y-471931D02*
Y-474470D01*
X-555332D01*
X-550253D01*
X-552793D01*
Y-482088D01*
X-550253Y-484627D01*
X-540097Y-471931D02*
Y-474470D01*
X-542636D01*
X-537557D01*
X-540097D01*
Y-482088D01*
X-537557Y-484627D01*
X-527401D02*
X-522322D01*
X-519783Y-482088D01*
Y-477010D01*
X-522322Y-474470D01*
X-527401D01*
X-529940Y-477010D01*
Y-482088D01*
X-527401Y-484627D01*
X-514705D02*
Y-474470D01*
X-512166D01*
X-509627Y-477010D01*
Y-484627D01*
Y-477010D01*
X-507087Y-474470D01*
X-504548Y-477010D01*
Y-484627D01*
X-476617Y-469392D02*
X-481696D01*
X-484235Y-471931D01*
Y-482088D01*
X-481696Y-484627D01*
X-476617D01*
X-474078Y-482088D01*
Y-471931D01*
X-476617Y-469392D01*
X-469000Y-474470D02*
X-463921Y-484627D01*
X-458843Y-474470D01*
X-446147Y-484627D02*
X-451225D01*
X-453765Y-482088D01*
Y-477010D01*
X-451225Y-474470D01*
X-446147D01*
X-443608Y-477010D01*
Y-479549D01*
X-453765D01*
X-438530Y-474470D02*
Y-484627D01*
Y-479549D01*
X-435990Y-477010D01*
X-433451Y-474470D01*
X-430912D01*
X-423294Y-484627D02*
X-418216D01*
X-420755D01*
Y-469392D01*
X-423294D01*
X-408059Y-474470D02*
X-402981D01*
X-400442Y-477010D01*
Y-484627D01*
X-408059D01*
X-410599Y-482088D01*
X-408059Y-479549D01*
X-400442D01*
X-395364Y-474470D02*
Y-482088D01*
X-392824Y-484627D01*
X-385207D01*
Y-487166D01*
X-387746Y-489706D01*
X-390285D01*
X-385207Y-484627D02*
Y-474470D01*
G54D53*
X26000Y-11000D02*
Y-7000D01*
X20000Y-9000D02*
Y-7000D01*
Y-11000D02*
Y-9000D01*
X110000Y-3000D02*
X114000Y-3000D01*
X112000Y3000D02*
X114000D01*
X110000D02*
X112000D01*
X34147Y117503D02*
X37905Y116135D01*
X32095Y111865D02*
X33974Y111181D01*
X35853Y110497D01*
X-28761Y113358D02*
X-27393Y109599D01*
X-34399Y111306D02*
X-33716Y109426D01*
X-33031Y107547D01*
X-99232Y60598D02*
X-95768Y58598D01*
X-102232Y55402D02*
X-100500Y54402D01*
X-98768Y53402D01*
X-104232Y-54402D02*
X-100768Y-52402D01*
X-101232Y-59598D02*
X-99500Y-58598D01*
X-97768Y-57598D01*
X-54890Y-103369D02*
X-53105Y-99789D01*
X-49520Y-106046D02*
X-48628Y-104256D01*
X-47736Y-102466D01*
X29584Y-107027D02*
X30754Y-110852D01*
X35907Y-107185D02*
X36492Y-109098D01*
X35322Y-105273D02*
X35907Y-107185D01*
X95495Y-58598D02*
X98959Y-60598D01*
X100227Y-54402D02*
X101959Y-55402D01*
X98495Y-53402D02*
X100227Y-54402D01*
X49759Y51170D02*
X52571Y54016D01*
X46897Y56810D02*
X48302Y58232D01*
X45491Y55387D02*
X46897Y56810D01*
X69845Y-12585D02*
X73708Y-13620D01*
X68292Y-18380D02*
X70223Y-18898D01*
X72155Y-19415D01*
X13000Y-11000D02*
Y-7000D01*
X7000Y-9000D02*
Y-7000D01*
Y-11000D02*
Y-9000D01*
X-65264Y37875D02*
X-61795Y35883D01*
X-68252Y32671D02*
X-66517Y31675D01*
X-64783Y30680D01*
X-72998Y19003D02*
X-69132Y17976D01*
X-74539Y13205D02*
X-72606Y12691D01*
X-70673Y12177D01*
X-51468Y-54635D02*
X-48844Y-51616D01*
X-46940Y-58571D02*
X-45628Y-57062D01*
X-44316Y-55553D01*
X61768Y-36598D02*
X65232Y-38598D01*
X66500Y-32402D02*
X68232Y-33402D01*
X64768Y-31402D02*
X66500Y-32402D01*
X-21000Y-1000D02*
X-17000D01*
X-19000Y5000D02*
X-17000D01*
X-21000D02*
X-19000D01*
X22000Y8000D02*
X26000D01*
X24000Y14000D02*
X26000D01*
X22000D02*
X24000D01*
X-20867Y11599D02*
X-16867D01*
X-18867Y17599D02*
X-16867Y17599D01*
X-20867D02*
X-18867Y17599D01*
M02*
