G04*
G04 #@! TF.GenerationSoftware,Altium Limited,Altium Designer,20.2.4 (192)*
G04*
G04 Layer_Color=8421504*
%FSLAX44Y44*%
%MOMM*%
G71*
G04*
G04 #@! TF.SameCoordinates,0F43FF0A-D758-409E-903F-A1448CC310CE*
G04*
G04*
G04 #@! TF.FilePolarity,Positive*
G04*
G01*
G75*
%ADD13C,0.2032*%
G54D13*
X-585802Y-469392D02*
X-575645D01*
X-580723D01*
Y-484627D01*
X-568028D02*
X-562949D01*
X-560410Y-482088D01*
Y-477010D01*
X-562949Y-474470D01*
X-568028D01*
X-570567Y-477010D01*
Y-482088D01*
X-568028Y-484627D01*
X-555332Y-489706D02*
Y-474470D01*
X-547714D01*
X-545175Y-477010D01*
Y-482088D01*
X-547714Y-484627D01*
X-555332D01*
X-524862D02*
Y-469392D01*
X-517244D01*
X-514705Y-471931D01*
Y-477010D01*
X-517244Y-479549D01*
X-524862D01*
X-507087Y-474470D02*
X-502009D01*
X-499470Y-477010D01*
Y-484627D01*
X-507087D01*
X-509627Y-482088D01*
X-507087Y-479549D01*
X-499470D01*
X-494391Y-484627D02*
X-486774D01*
X-484235Y-482088D01*
X-486774Y-479549D01*
X-491852D01*
X-494391Y-477010D01*
X-491852Y-474470D01*
X-484235D01*
X-476617Y-471931D02*
Y-474470D01*
X-479156D01*
X-474078D01*
X-476617D01*
Y-482088D01*
X-474078Y-484627D01*
X-458843D02*
X-463921D01*
X-466460Y-482088D01*
Y-477010D01*
X-463921Y-474470D01*
X-458843D01*
X-456304Y-477010D01*
Y-479549D01*
X-466460D01*
M02*
